<svg width="28" height="28" viewBox="0 0 28 28" fill="none" xmlns="http://www.w3.org/2000/svg">
<rect x="2.625" y="4.375" width="13.125" height="20.125" rx="1.75" stroke="#575271" stroke-width="1.6"/>
<rect x="7" y="20.125" width="4.375" height="1.6" rx="0.8" fill="#575271"/>
<path d="M18.375 14H23.625C24.5915 14 25.375 14.7835 25.375 15.75V22.75C25.375 23.7165 24.5915 24.5 23.625 24.5H18.375" stroke="#575271" stroke-width="1.6" stroke-linecap="round"/>
<path d="M24.625 10.625C24.625 8.20875 22.6662 6.25 20.25 6.25" stroke="#575271" stroke-width="1.6" stroke-linecap="round"/>
<path d="M18.1276 6.2277C18.0543 6.31225 18.0543 6.43775 18.1276 6.5223L20.1362 8.84163C20.2725 8.99911 20.5312 8.90266 20.5312 8.69434L20.5312 4.05566C20.5312 3.84734 20.2725 3.75089 20.1362 3.90837L18.1276 6.2277Z" fill="#575271"/>
</svg>
