<svg width="28" height="28" viewBox="0 0 28 28" fill="none" xmlns="http://www.w3.org/2000/svg">
<rect x="2.625" y="4.375" width="13.125" height="20.125" rx="1.75" stroke="#575271" stroke-width="1.6"/>
<rect x="7" y="20.125" width="4.375" height="1.6" rx="0.8" fill="#575271"/>
<path d="M18.375 14H23.625C24.5915 14 25.375 14.7835 25.375 15.75V22.75C25.375 23.7165 24.5915 24.5 23.625 24.5H18.375" stroke="#575271" stroke-width="1.6" stroke-linecap="round"/>
<path d="M23.625 10.625C23.625 8.20875 21.6662 6.25 19.25 6.25" stroke="#575271" stroke-width="1.6" stroke-linecap="round"/>
<path d="M23.2277 12.2474C23.3123 12.3207 23.4377 12.3207 23.5223 12.2474L25.8416 10.2388C25.9991 10.1025 25.9027 9.84375 25.6943 9.84375H21.0557C20.8473 9.84375 20.7509 10.1025 20.9084 10.2388L23.2277 12.2474Z" fill="#575271"/>
</svg>
