<svg width="36" height="196" viewBox="0 0 36 196" fill="none" xmlns="http://www.w3.org/2000/svg">
<rect width="36" height="196" rx="8" fill="url(#paint0_linear_660_16226)"/>
<path d="M19.5027 8.808C18.3267 8.808 17.4167 9.284 16.7727 10.264C16.1567 11.188 15.8487 12.434 15.8487 14.002C15.8487 15.57 16.1567 16.816 16.7727 17.74C17.4167 18.706 18.3267 19.196 19.5027 19.196C20.6647 19.196 21.5747 18.706 22.2327 17.74C22.8487 16.816 23.1567 15.57 23.1567 14.002C23.1567 12.434 22.8487 11.188 22.2327 10.264C21.5747 9.284 20.6647 8.808 19.5027 8.808ZM19.5027 10.194C20.2867 10.194 20.8467 10.628 21.1827 11.524C21.4067 12.126 21.5187 12.952 21.5187 14.002C21.5187 15.038 21.4067 15.864 21.1827 16.48C20.8467 17.362 20.2867 17.81 19.5027 17.81C18.7047 17.81 18.1447 17.362 17.8227 16.48C17.5987 15.864 17.4867 15.038 17.4867 14.002C17.4867 12.952 17.5987 12.126 17.8227 11.524C18.1447 10.628 18.7047 10.194 19.5027 10.194Z" fill="#3B3558"/>
<path d="M10.6082 56.808C9.5302 56.808 8.6762 57.088 8.0462 57.662C7.4722 58.166 7.1922 58.796 7.1922 59.552C7.1922 60.056 7.3042 60.49 7.5282 60.84C7.7662 61.204 8.1302 61.498 8.6342 61.694V61.722C8.1582 61.848 7.7662 62.128 7.4302 62.562C7.0382 63.038 6.8562 63.584 6.8562 64.2C6.8562 65.096 7.1782 65.81 7.8362 66.37C8.4802 66.916 9.4042 67.196 10.6082 67.196C11.7982 67.196 12.7222 66.916 13.3802 66.37C14.0242 65.81 14.3602 65.096 14.3602 64.2C14.3602 63.584 14.1642 63.038 13.7862 62.562C13.4502 62.128 13.0442 61.848 12.5822 61.722V61.694C13.0722 61.498 13.4362 61.204 13.6882 60.84C13.9122 60.49 14.0242 60.056 14.0242 59.552C14.0242 58.796 13.7302 58.166 13.1702 57.662C12.5262 57.088 11.6722 56.808 10.6082 56.808ZM10.6082 58.11C11.1962 58.11 11.6582 58.264 12.0222 58.586C12.3302 58.866 12.4842 59.202 12.4842 59.608C12.4842 60.07 12.3582 60.434 12.1062 60.7C11.7982 61.022 11.2942 61.19 10.6082 61.19C9.9082 61.19 9.4182 61.022 9.1102 60.7C8.8582 60.434 8.7322 60.07 8.7322 59.608C8.7322 59.202 8.8862 58.866 9.1942 58.586C9.5442 58.264 10.0202 58.11 10.6082 58.11ZM10.6082 62.408C11.3082 62.408 11.8402 62.576 12.2182 62.926C12.5542 63.234 12.7362 63.668 12.7362 64.2C12.7362 64.704 12.5542 65.096 12.2042 65.404C11.8122 65.712 11.2802 65.88 10.6082 65.88C9.9222 65.88 9.4042 65.726 9.0402 65.418C8.6622 65.11 8.4802 64.704 8.4802 64.2C8.4802 63.668 8.6482 63.234 9.0122 62.912C9.3762 62.576 9.9082 62.408 10.6082 62.408ZM19.0027 56.808C17.8267 56.808 16.9167 57.284 16.2727 58.264C15.6567 59.188 15.3487 60.434 15.3487 62.002C15.3487 63.57 15.6567 64.816 16.2727 65.74C16.9167 66.706 17.8267 67.196 19.0027 67.196C20.1647 67.196 21.0747 66.706 21.7327 65.74C22.3487 64.816 22.6567 63.57 22.6567 62.002C22.6567 60.434 22.3487 59.188 21.7327 58.264C21.0747 57.284 20.1647 56.808 19.0027 56.808ZM19.0027 58.194C19.7867 58.194 20.3467 58.628 20.6827 59.524C20.9067 60.126 21.0187 60.952 21.0187 62.002C21.0187 63.038 20.9067 63.864 20.6827 64.48C20.3467 65.362 19.7867 65.81 19.0027 65.81C18.2047 65.81 17.6447 65.362 17.3227 64.48C17.0987 63.864 16.9867 63.038 16.9867 62.002C16.9867 60.952 17.0987 60.126 17.3227 59.524C17.6447 58.628 18.2047 58.194 19.0027 58.194ZM27.3973 56.808C26.2213 56.808 25.3113 57.284 24.6673 58.264C24.0513 59.188 23.7433 60.434 23.7433 62.002C23.7433 63.57 24.0513 64.816 24.6673 65.74C25.3113 66.706 26.2213 67.196 27.3973 67.196C28.5593 67.196 29.4693 66.706 30.1273 65.74C30.7433 64.816 31.0513 63.57 31.0513 62.002C31.0513 60.434 30.7433 59.188 30.1273 58.264C29.4693 57.284 28.5593 56.808 27.3973 56.808ZM27.3973 58.194C28.1813 58.194 28.7413 58.628 29.0773 59.524C29.3013 60.126 29.4133 60.952 29.4133 62.002C29.4133 63.038 29.3013 63.864 29.0773 64.48C28.7413 65.362 28.1813 65.81 27.3973 65.81C26.5993 65.81 26.0393 65.362 25.7173 64.48C25.4933 63.864 25.3813 63.038 25.3813 62.002C25.3813 60.952 25.4933 60.126 25.7173 59.524C26.0393 58.628 26.5993 58.194 27.3973 58.194Z" fill="#3B3558"/>
<path d="M7.28511 81.004C6.94911 81.354 6.52911 81.676 6.02511 81.984C5.52111 82.264 5.04511 82.46 4.59711 82.572V84.196C5.52111 83.93 6.27711 83.524 6.87911 82.978V91H8.51711V81.004H7.28511ZM13.9793 80.808C12.8033 80.808 11.8933 81.284 11.2493 82.264C10.6333 83.188 10.3253 84.434 10.3253 86.002C10.3253 87.57 10.6333 88.816 11.2493 89.74C11.8933 90.706 12.8033 91.196 13.9793 91.196C15.1413 91.196 16.0513 90.706 16.7093 89.74C17.3253 88.816 17.6333 87.57 17.6333 86.002C17.6333 84.434 17.3253 83.188 16.7093 82.264C16.0513 81.284 15.1413 80.808 13.9793 80.808ZM13.9793 82.194C14.7633 82.194 15.3233 82.628 15.6593 83.524C15.8833 84.126 15.9953 84.952 15.9953 86.002C15.9953 87.038 15.8833 87.864 15.6593 88.48C15.3233 89.362 14.7633 89.81 13.9793 89.81C13.1813 89.81 12.6213 89.362 12.2993 88.48C12.0753 87.864 11.9633 87.038 11.9633 86.002C11.9633 84.952 12.0753 84.126 12.2993 83.524C12.6213 82.628 13.1813 82.194 13.9793 82.194ZM22.3738 80.808C21.1978 80.808 20.2878 81.284 19.6438 82.264C19.0278 83.188 18.7198 84.434 18.7198 86.002C18.7198 87.57 19.0278 88.816 19.6438 89.74C20.2878 90.706 21.1978 91.196 22.3738 91.196C23.5358 91.196 24.4458 90.706 25.1038 89.74C25.7198 88.816 26.0278 87.57 26.0278 86.002C26.0278 84.434 25.7198 83.188 25.1038 82.264C24.4458 81.284 23.5358 80.808 22.3738 80.808ZM22.3738 82.194C23.1578 82.194 23.7178 82.628 24.0538 83.524C24.2778 84.126 24.3898 84.952 24.3898 86.002C24.3898 87.038 24.2778 87.864 24.0538 88.48C23.7178 89.362 23.1578 89.81 22.3738 89.81C21.5758 89.81 21.0158 89.362 20.6938 88.48C20.4698 87.864 20.3578 87.038 20.3578 86.002C20.3578 84.952 20.4698 84.126 20.6938 83.524C21.0158 82.628 21.5758 82.194 22.3738 82.194ZM30.7684 80.808C29.5924 80.808 28.6824 81.284 28.0384 82.264C27.4224 83.188 27.1144 84.434 27.1144 86.002C27.1144 87.57 27.4224 88.816 28.0384 89.74C28.6824 90.706 29.5924 91.196 30.7684 91.196C31.9304 91.196 32.8404 90.706 33.4984 89.74C34.1144 88.816 34.4224 87.57 34.4224 86.002C34.4224 84.434 34.1144 83.188 33.4984 82.264C32.8404 81.284 31.9304 80.808 30.7684 80.808ZM30.7684 82.194C31.5524 82.194 32.1124 82.628 32.4484 83.524C32.6724 84.126 32.7844 84.952 32.7844 86.002C32.7844 87.038 32.6724 87.864 32.4484 88.48C32.1124 89.362 31.5524 89.81 30.7684 89.81C29.9704 89.81 29.4104 89.362 29.0884 88.48C28.8644 87.864 28.7524 87.038 28.7524 86.002C28.7524 84.952 28.8644 84.126 29.0884 83.524C29.4104 82.628 29.9704 82.194 30.7684 82.194Z" fill="#3B3558"/>
<path d="M6.56494 176.808C5.48694 176.808 4.61894 177.172 3.96094 177.9C3.31694 178.586 2.99494 179.482 2.98094 180.602H4.61894C4.64694 179.818 4.81494 179.216 5.12294 178.824C5.43094 178.404 5.89294 178.194 6.50894 178.194C7.08294 178.194 7.51694 178.32 7.81094 178.586C8.09094 178.852 8.24494 179.258 8.24494 179.804C8.24494 180.364 8.02094 180.896 7.58694 181.386C7.30694 181.68 6.85894 182.058 6.21494 182.506C5.05294 183.304 4.28294 183.92 3.91894 184.34C3.24694 185.096 2.92494 185.978 2.92494 187H9.89694V185.558H4.96894C5.19294 185.054 5.80894 184.466 6.83094 183.794C7.81094 183.136 8.51094 182.604 8.90294 182.184C9.54694 181.47 9.88294 180.686 9.88294 179.818C9.88294 178.922 9.57494 178.208 8.95894 177.648C8.32894 177.088 7.53094 176.808 6.56494 176.808ZM11.8935 177.004L11.3475 182.632H12.8735C13.0695 182.282 13.3355 182.03 13.6855 181.862C13.9935 181.708 14.3715 181.638 14.8055 181.638C15.4495 181.638 15.9535 181.82 16.2895 182.212C16.6255 182.59 16.8075 183.122 16.8075 183.794C16.8075 184.41 16.5975 184.9 16.2055 185.264C15.7995 185.628 15.2955 185.81 14.7075 185.81C14.1615 185.81 13.7275 185.684 13.4195 185.46C13.0555 185.194 12.8455 184.788 12.7755 184.242H11.1655C11.2355 185.166 11.6275 185.908 12.3555 186.454C12.9995 186.944 13.7835 187.196 14.6935 187.196C15.6875 187.196 16.5415 186.902 17.2695 186.314C18.0535 185.656 18.4455 184.816 18.4455 183.78C18.4455 182.702 18.1375 181.848 17.5495 181.232C16.9615 180.616 16.1915 180.308 15.2535 180.308C14.8055 180.308 14.3995 180.378 14.0355 180.518C13.6295 180.658 13.2795 180.882 12.9715 181.19H12.9295L13.2095 178.446H17.9835V177.004H11.8935ZM23.2 176.808C22.024 176.808 21.114 177.284 20.47 178.264C19.854 179.188 19.546 180.434 19.546 182.002C19.546 183.57 19.854 184.816 20.47 185.74C21.114 186.706 22.024 187.196 23.2 187.196C24.362 187.196 25.272 186.706 25.93 185.74C26.546 184.816 26.854 183.57 26.854 182.002C26.854 180.434 26.546 179.188 25.93 178.264C25.272 177.284 24.362 176.808 23.2 176.808ZM23.2 178.194C23.984 178.194 24.544 178.628 24.88 179.524C25.104 180.126 25.216 180.952 25.216 182.002C25.216 183.038 25.104 183.864 24.88 184.48C24.544 185.362 23.984 185.81 23.2 185.81C22.402 185.81 21.842 185.362 21.52 184.48C21.296 183.864 21.184 183.038 21.184 182.002C21.184 180.952 21.296 180.126 21.52 179.524C21.842 178.628 22.402 178.194 23.2 178.194ZM31.5945 176.808C30.4185 176.808 29.5085 177.284 28.8645 178.264C28.2485 179.188 27.9405 180.434 27.9405 182.002C27.9405 183.57 28.2485 184.816 28.8645 185.74C29.5085 186.706 30.4185 187.196 31.5945 187.196C32.7565 187.196 33.6665 186.706 34.3245 185.74C34.9405 184.816 35.2485 183.57 35.2485 182.002C35.2485 180.434 34.9405 179.188 34.3245 178.264C33.6665 177.284 32.7565 176.808 31.5945 176.808ZM31.5945 178.194C32.3785 178.194 32.9385 178.628 33.2745 179.524C33.4985 180.126 33.6105 180.952 33.6105 182.002C33.6105 183.038 33.4985 183.864 33.2745 184.48C32.9385 185.362 32.3785 185.81 31.5945 185.81C30.7965 185.81 30.2365 185.362 29.9145 184.48C29.6905 183.864 29.5785 183.038 29.5785 182.002C29.5785 180.952 29.6905 180.126 29.9145 179.524C30.2365 178.628 30.7965 178.194 31.5945 178.194Z" fill="#3B3558"/>
<defs>
<linearGradient id="paint0_linear_660_16226" x1="17.9747" y1="195.994" x2="58.7739" y2="8.90026" gradientUnits="userSpaceOnUse">
<stop stop-color="#FBB1AD"/>
<stop offset="0.566926" stop-color="#F4EBA9"/>
<stop offset="0.680117" stop-color="#C4F2BF"/>
</linearGradient>
</defs>
</svg>
