<svg width="36" height="196" viewBox="0 0 36 196" fill="none" xmlns="http://www.w3.org/2000/svg">
<rect width="36" height="196" rx="8" fill="url(#paint0_linear_660_16252)"/>
<path d="M18.5027 8.808C17.3267 8.808 16.4167 9.284 15.7727 10.264C15.1567 11.188 14.8487 12.434 14.8487 14.002C14.8487 15.57 15.1567 16.816 15.7727 17.74C16.4167 18.706 17.3267 19.196 18.5027 19.196C19.6647 19.196 20.5747 18.706 21.2327 17.74C21.8487 16.816 22.1567 15.57 22.1567 14.002C22.1567 12.434 21.8487 11.188 21.2327 10.264C20.5747 9.284 19.6647 8.808 18.5027 8.808ZM18.5027 10.194C19.2867 10.194 19.8467 10.628 20.1827 11.524C20.4067 12.126 20.5187 12.952 20.5187 14.002C20.5187 15.038 20.4067 15.864 20.1827 16.48C19.8467 17.362 19.2867 17.81 18.5027 17.81C17.7047 17.81 17.1447 17.362 16.8227 16.48C16.5987 15.864 16.4867 15.038 16.4867 14.002C16.4867 12.952 16.5987 12.126 16.8227 11.524C17.1447 10.628 17.7047 10.194 18.5027 10.194Z" fill="#3B3558"/>
<path d="M7.68047 68.808C6.50447 68.808 5.59447 69.284 4.95047 70.264C4.33447 71.188 4.02647 72.434 4.02647 74.002C4.02647 75.57 4.33447 76.816 4.95047 77.74C5.59447 78.706 6.50447 79.196 7.68047 79.196C8.84247 79.196 9.75247 78.706 10.4105 77.74C11.0265 76.816 11.3345 75.57 11.3345 74.002C11.3345 72.434 11.0265 71.188 10.4105 70.264C9.75247 69.284 8.84247 68.808 7.68047 68.808ZM7.68047 70.194C8.46447 70.194 9.02447 70.628 9.36047 71.524C9.58447 72.126 9.69647 72.952 9.69647 74.002C9.69647 75.038 9.58447 75.864 9.36047 76.48C9.02447 77.362 8.46447 77.81 7.68047 77.81C6.88247 77.81 6.32247 77.362 6.00047 76.48C5.77647 75.864 5.66447 75.038 5.66447 74.002C5.66447 72.952 5.77647 72.126 6.00047 71.524C6.32247 70.628 6.88247 70.194 7.68047 70.194ZM13.793 76.886C13.485 76.886 13.219 76.984 13.023 77.208C12.799 77.418 12.701 77.684 12.701 77.992C12.701 78.3 12.799 78.552 13.023 78.776C13.219 78.972 13.485 79.084 13.793 79.084C14.101 79.084 14.353 78.972 14.577 78.776C14.787 78.552 14.899 78.3 14.899 77.992C14.899 77.684 14.787 77.418 14.577 77.208C14.353 76.984 14.101 76.886 13.793 76.886ZM19.9305 68.808C18.7545 68.808 17.8445 69.284 17.2005 70.264C16.5845 71.188 16.2765 72.434 16.2765 74.002C16.2765 75.57 16.5845 76.816 17.2005 77.74C17.8445 78.706 18.7545 79.196 19.9305 79.196C21.0925 79.196 22.0025 78.706 22.6605 77.74C23.2765 76.816 23.5845 75.57 23.5845 74.002C23.5845 72.434 23.2765 71.188 22.6605 70.264C22.0025 69.284 21.0925 68.808 19.9305 68.808ZM19.9305 70.194C20.7145 70.194 21.2745 70.628 21.6105 71.524C21.8345 72.126 21.9465 72.952 21.9465 74.002C21.9465 75.038 21.8345 75.864 21.6105 76.48C21.2745 77.362 20.7145 77.81 19.9305 77.81C19.1325 77.81 18.5725 77.362 18.2505 76.48C18.0265 75.864 17.9145 75.038 17.9145 74.002C17.9145 72.952 18.0265 72.126 18.2505 71.524C18.5725 70.628 19.1325 70.194 19.9305 70.194ZM28.325 68.808C27.247 68.808 26.393 69.088 25.763 69.662C25.189 70.166 24.909 70.796 24.909 71.552C24.909 72.056 25.021 72.49 25.245 72.84C25.483 73.204 25.847 73.498 26.351 73.694V73.722C25.875 73.848 25.483 74.128 25.147 74.562C24.755 75.038 24.573 75.584 24.573 76.2C24.573 77.096 24.895 77.81 25.553 78.37C26.197 78.916 27.121 79.196 28.325 79.196C29.515 79.196 30.439 78.916 31.097 78.37C31.741 77.81 32.077 77.096 32.077 76.2C32.077 75.584 31.881 75.038 31.503 74.562C31.167 74.128 30.761 73.848 30.299 73.722V73.694C30.789 73.498 31.153 73.204 31.405 72.84C31.629 72.49 31.741 72.056 31.741 71.552C31.741 70.796 31.447 70.166 30.887 69.662C30.243 69.088 29.389 68.808 28.325 68.808ZM28.325 70.11C28.913 70.11 29.375 70.264 29.739 70.586C30.047 70.866 30.201 71.202 30.201 71.608C30.201 72.07 30.075 72.434 29.823 72.7C29.515 73.022 29.011 73.19 28.325 73.19C27.625 73.19 27.135 73.022 26.827 72.7C26.575 72.434 26.449 72.07 26.449 71.608C26.449 71.202 26.603 70.866 26.911 70.586C27.261 70.264 27.737 70.11 28.325 70.11ZM28.325 74.408C29.025 74.408 29.557 74.576 29.935 74.926C30.271 75.234 30.453 75.668 30.453 76.2C30.453 76.704 30.271 77.096 29.921 77.404C29.529 77.712 28.997 77.88 28.325 77.88C27.639 77.88 27.121 77.726 26.757 77.418C26.379 77.11 26.197 76.704 26.197 76.2C26.197 75.668 26.365 75.234 26.729 74.912C27.093 74.576 27.625 74.408 28.325 74.408Z" fill="#3B3558"/>
<path d="M9.50664 92.808C8.33064 92.808 7.42064 93.284 6.77664 94.264C6.16064 95.188 5.85264 96.434 5.85264 98.002C5.85264 99.57 6.16064 100.816 6.77664 101.74C7.42064 102.706 8.33064 103.196 9.50664 103.196C10.6686 103.196 11.5786 102.706 12.2366 101.74C12.8526 100.816 13.1606 99.57 13.1606 98.002C13.1606 96.434 12.8526 95.188 12.2366 94.264C11.5786 93.284 10.6686 92.808 9.50664 92.808ZM9.50664 94.194C10.2906 94.194 10.8506 94.628 11.1866 95.524C11.4106 96.126 11.5226 96.952 11.5226 98.002C11.5226 99.038 11.4106 99.864 11.1866 100.48C10.8506 101.362 10.2906 101.81 9.50664 101.81C8.70864 101.81 8.14864 101.362 7.82664 100.48C7.60264 99.864 7.49064 99.038 7.49064 98.002C7.49064 96.952 7.60264 96.126 7.82664 95.524C8.14864 94.628 8.70864 94.194 9.50664 94.194ZM15.6192 100.886C15.3112 100.886 15.0452 100.984 14.8492 101.208C14.6252 101.418 14.5272 101.684 14.5272 101.992C14.5272 102.3 14.6252 102.552 14.8492 102.776C15.0452 102.972 15.3112 103.084 15.6192 103.084C15.9272 103.084 16.1792 102.972 16.4032 102.776C16.6132 102.552 16.7252 102.3 16.7252 101.992C16.7252 101.684 16.6132 101.418 16.4032 101.208C16.1792 100.984 15.9272 100.886 15.6192 100.886ZM20.8046 93.004C20.4686 93.354 20.0486 93.676 19.5446 93.984C19.0406 94.264 18.5646 94.46 18.1166 94.572V96.196C19.0406 95.93 19.7966 95.524 20.3986 94.978V103H22.0366V93.004H20.8046ZM27.4988 92.808C26.3228 92.808 25.4128 93.284 24.7688 94.264C24.1528 95.188 23.8448 96.434 23.8448 98.002C23.8448 99.57 24.1528 100.816 24.7688 101.74C25.4128 102.706 26.3228 103.196 27.4988 103.196C28.6608 103.196 29.5708 102.706 30.2288 101.74C30.8448 100.816 31.1528 99.57 31.1528 98.002C31.1528 96.434 30.8448 95.188 30.2288 94.264C29.5708 93.284 28.6608 92.808 27.4988 92.808ZM27.4988 94.194C28.2828 94.194 28.8428 94.628 29.1788 95.524C29.4028 96.126 29.5148 96.952 29.5148 98.002C29.5148 99.038 29.4028 99.864 29.1788 100.48C28.8428 101.362 28.2828 101.81 27.4988 101.81C26.7008 101.81 26.1408 101.362 25.8188 100.48C25.5948 99.864 25.4828 99.038 25.4828 98.002C25.4828 96.952 25.5948 96.126 25.8188 95.524C26.1408 94.628 26.7008 94.194 27.4988 94.194Z" fill="#3B3558"/>
<path d="M7.68047 176.808C6.50447 176.808 5.59447 177.284 4.95047 178.264C4.33447 179.188 4.02647 180.434 4.02647 182.002C4.02647 183.57 4.33447 184.816 4.95047 185.74C5.59447 186.706 6.50447 187.196 7.68047 187.196C8.84247 187.196 9.75247 186.706 10.4105 185.74C11.0265 184.816 11.3345 183.57 11.3345 182.002C11.3345 180.434 11.0265 179.188 10.4105 178.264C9.75247 177.284 8.84247 176.808 7.68047 176.808ZM7.68047 178.194C8.46447 178.194 9.02447 178.628 9.36047 179.524C9.58447 180.126 9.69647 180.952 9.69647 182.002C9.69647 183.038 9.58447 183.864 9.36047 184.48C9.02447 185.362 8.46447 185.81 7.68047 185.81C6.88247 185.81 6.32247 185.362 6.00047 184.48C5.77647 183.864 5.66447 183.038 5.66447 182.002C5.66447 180.952 5.77647 180.126 6.00047 179.524C6.32247 178.628 6.88247 178.194 7.68047 178.194ZM13.793 184.886C13.485 184.886 13.219 184.984 13.023 185.208C12.799 185.418 12.701 185.684 12.701 185.992C12.701 186.3 12.799 186.552 13.023 186.776C13.219 186.972 13.485 187.084 13.793 187.084C14.101 187.084 14.353 186.972 14.577 186.776C14.787 186.552 14.899 186.3 14.899 185.992C14.899 185.684 14.787 185.418 14.577 185.208C14.353 184.984 14.101 184.886 13.793 184.886ZM20.0845 176.808C19.0065 176.808 18.1385 177.172 17.4805 177.9C16.8365 178.586 16.5145 179.482 16.5005 180.602H18.1385C18.1665 179.818 18.3345 179.216 18.6425 178.824C18.9505 178.404 19.4125 178.194 20.0285 178.194C20.6025 178.194 21.0365 178.32 21.3305 178.586C21.6105 178.852 21.7645 179.258 21.7645 179.804C21.7645 180.364 21.5405 180.896 21.1065 181.386C20.8265 181.68 20.3785 182.058 19.7345 182.506C18.5725 183.304 17.8025 183.92 17.4385 184.34C16.7665 185.096 16.4445 185.978 16.4445 187H23.4165V185.558H18.4885C18.7125 185.054 19.3285 184.466 20.3505 183.794C21.3305 183.136 22.0305 182.604 22.4225 182.184C23.0665 181.47 23.4025 180.686 23.4025 179.818C23.4025 178.922 23.0945 178.208 22.4785 177.648C21.8485 177.088 21.0505 176.808 20.0845 176.808ZM28.325 176.808C27.149 176.808 26.239 177.284 25.595 178.264C24.979 179.188 24.671 180.434 24.671 182.002C24.671 183.57 24.979 184.816 25.595 185.74C26.239 186.706 27.149 187.196 28.325 187.196C29.487 187.196 30.397 186.706 31.055 185.74C31.671 184.816 31.979 183.57 31.979 182.002C31.979 180.434 31.671 179.188 31.055 178.264C30.397 177.284 29.487 176.808 28.325 176.808ZM28.325 178.194C29.109 178.194 29.669 178.628 30.005 179.524C30.229 180.126 30.341 180.952 30.341 182.002C30.341 183.038 30.229 183.864 30.005 184.48C29.669 185.362 29.109 185.81 28.325 185.81C27.527 185.81 26.967 185.362 26.645 184.48C26.421 183.864 26.309 183.038 26.309 182.002C26.309 180.952 26.421 180.126 26.645 179.524C26.967 178.628 27.527 178.194 28.325 178.194Z" fill="#3B3558"/>
<defs>
<linearGradient id="paint0_linear_660_16252" x1="17.9747" y1="195.994" x2="58.7739" y2="8.90026" gradientUnits="userSpaceOnUse">
<stop offset="0.065125" stop-color="#FBB1AD"/>
<stop offset="0.488868" stop-color="#F4EBA9"/>
<stop offset="0.628603" stop-color="#C4F2BF"/>
</linearGradient>
</defs>
</svg>
