<svg width="230" height="60" viewBox="0 0 230 60" fill="none" xmlns="http://www.w3.org/2000/svg">
<g clip-path="url(#clip0_1813_11305)">
<path d="M4.52216 59.6533L0 50.4749C0 50.4749 0 50.4728 0 50.4708L8.81944 32.5678C9.51468 31.1546 9.51468 29.5001 8.81944 28.0869L0 10.1839C0 10.1839 0 10.1819 0 10.1798L4.52216 0.99935C4.52422 0.997287 4.52835 0.997287 4.52835 0.99935L17.1149 26.5479C18.2887 28.9286 18.2887 31.7199 17.1149 34.1006L4.52835 59.6533C4.52835 59.6554 4.52422 59.6554 4.52216 59.6533ZM24.8347 13.4291L20.3105 22.6178L23.0048 28.0869C23.7001 29.5001 23.7001 31.1546 23.0048 32.5678L20.3064 38.0431H20.3126L24.8347 47.2256L31.2982 34.1027C32.47 31.722 32.47 28.9307 31.2982 26.5499L24.8347 13.4291Z" fill="url(#paint0_linear_1813_11305)"/>
<path d="M53.5832 15.5461C51.5346 15.5461 50.0183 16.8892 49.6882 18.7727C49.354 20.6831 50.6537 22.1066 52.7621 22.1045C54.6828 22.1045 55.6297 21.0998 55.6771 21.0627L55.0479 20.1962C55.0005 20.2313 54.1732 20.7697 53.1644 20.7718C52.0854 20.7594 51.4149 19.9198 51.5057 19.1833L56.36 19.1771C56.3579 19.175 57.0986 15.5461 53.5832 15.5461ZM51.7099 18.0775C52.0194 17.2688 52.791 16.8541 53.6574 16.8541C54.4435 16.8541 54.9179 17.572 54.8684 18.096L51.7099 18.0775Z" fill="#0A5FA5"/>
<path d="M49.492 14.7954C49.2815 14.3786 48.9907 14.0568 48.6193 13.8278C48.1675 13.5452 47.5135 13.4028 46.6532 13.4028H43.9754L42.8325 21.9706H44.7449L45.1018 19.1669C45.1679 19.169 45.7992 19.1772 46.4696 19.138C47.7198 19.0638 48.5719 18.7585 49.1536 17.9807C49.5456 17.4567 49.7746 16.844 49.7746 16.1528C49.7746 15.6784 49.7024 15.2224 49.492 14.7954ZM47.5383 17.2359C46.9214 17.8631 45.632 17.859 45.269 17.8425L45.6238 15.0471L46.4449 15.0656C47.3877 15.0656 47.9653 15.4081 47.9653 16.1363C47.9674 16.4685 47.922 16.846 47.5383 17.2359Z" fill="#0A5FA5"/>
<path d="M60.7211 15.7815C57.7709 15.5567 57.1871 17.3494 57.0695 18.3026L56.5806 21.9706H58.5116C58.5116 21.9706 58.7901 19.3155 58.9489 18.3067C59.1057 17.1761 59.7473 17.0709 60.5767 17.0152L60.7211 15.7815Z" fill="#0A5FA5"/>
<path d="M66.4708 17.2296L66.6131 16.0309C66.0912 15.8618 65.0865 15.672 63.9848 15.6823C61.9094 15.7339 61.0925 16.7262 60.9192 17.4152C60.9192 17.4152 60.5643 18.6056 62.0002 19.2101C62.5345 19.4308 63.2669 19.6949 63.6238 19.8145C64.1334 19.9816 64.1437 20.7016 62.9822 20.7223C61.8042 20.7367 60.8923 20.5779 60.3209 20.4438L60.1682 21.6238C60.6056 21.7476 61.6515 22.0178 63.0317 21.9663C64.513 21.9064 65.2639 21.5949 65.726 21.1246C65.9694 20.877 66.1262 20.5737 66.1799 20.2952C66.2665 19.864 66.1283 19.404 65.792 19.1152C65.0927 18.5107 63.7723 18.1786 63.3226 17.9949C62.6748 17.7515 62.8749 17.1161 63.4938 16.9902C64.6842 16.7695 65.8746 17.0707 66.4708 17.2296Z" fill="#0A5FA5"/>
<path d="M68.2244 21.8756C69.3467 22.1377 72.107 21.8591 72.107 21.8591C72.1132 21.8261 72.7569 15.8681 72.7569 15.8681C72.7569 15.8681 70.4133 15.8269 69.9553 15.8392C68.9939 15.8805 68.1192 16.1301 67.5498 16.747C66.9453 17.4009 66.6647 19.2989 66.6895 19.9859C66.6916 20.054 66.6049 21.494 68.2244 21.8756ZM68.7133 18.0879C69.0578 16.8068 70.7083 17.009 70.7537 17.0069L70.2915 20.708C68.9341 20.8916 68.5318 20.5883 68.4493 19.9282C68.4183 19.6435 68.573 18.6099 68.7133 18.0879Z" fill="#0A5FA5"/>
<path d="M79.0243 15.8661C79.0243 15.8661 76.8602 15.8021 76.2228 15.8372C75.2614 15.8784 74.3867 16.1281 73.8173 16.7449C73.2128 17.3989 72.9281 19.3237 72.9529 20.0107C72.9549 20.0808 72.9817 21.8096 74.4857 21.9025C75.0489 21.9396 75.6183 21.952 76.4002 21.7003L76.427 21.69L76.3754 22.0696C76.264 22.7669 76.1444 23.0454 75.3914 23.2311C74.6074 23.4229 73.4666 23.3198 72.9095 23.229L72.7837 24.2089C73.219 24.343 75.0324 24.6195 76.1629 24.3575C77.702 23.9985 78.1331 23.4436 78.3642 21.8736L79.0243 15.8661ZM76.6684 19.8993L76.5797 20.5636C75.5956 20.8875 74.7642 20.6688 74.7126 19.9529C74.6837 19.6682 74.8426 18.6078 74.9808 18.0859C75.3253 16.8047 76.9758 17.0069 77.0212 17.0048L76.6684 19.8993Z" fill="#0A5FA5"/>
<path d="M79.8166 24.4627H81.4546L85.7767 15.897H83.6332L82.2407 19.138L81.5372 15.897H79.5195L80.8997 21.9685L79.8166 24.4627Z" fill="#0A5FA5"/>
<path d="M95.6213 26.1831H92.1389L91.5427 31.6831H85.6074C84.6955 31.6831 83.9322 32.3701 83.8332 33.2758L82.354 47.2095H85.6528L86.9773 34.7034C87.0164 34.3403 87.3218 34.0659 87.6869 34.0659H98.9119L98.0784 42.5326C97.9422 43.6673 97.1439 44.6781 96.201 45.231L97.0861 47.2652C99.4008 47.325 101.233 45.2806 101.416 43.0195L102.559 31.6831H95.021L95.6213 26.1831Z" fill="#0A5FA5"/>
<path d="M89.0754 30.6352C88.9722 28.6836 88.9599 27.6212 88.9289 26.3276H85.9045C85.8942 27.9616 85.9045 28.8817 86.051 30.6352H89.0754Z" fill="#0A5FA5"/>
<path d="M101.827 26.3254H98.8026C98.6149 27.619 98.4746 28.6814 98.1362 30.633H101.161C101.518 28.8815 101.639 27.9614 101.827 26.3254Z" fill="#0A5FA5"/>
<path d="M97.2655 35.5947H89.1701C88.7142 35.5947 88.3305 35.9393 88.283 36.3931L87.4888 43.9686H93.4592C95.4665 43.9809 96.3412 43.7354 96.5805 41.7756L97.2655 35.5947ZM93.6882 40.9359C93.6283 41.5053 93.3271 41.7694 92.4132 41.7694H90.7484L91.0784 38.4335C91.1197 38.0724 91.425 37.7939 91.7902 37.7939H94.0017L93.6882 40.9359Z" fill="#0A5FA5"/>
<path d="M110.45 29.0239H109.289L109.594 26.1831H107.461C107.005 26.1831 106.624 26.5256 106.574 26.9794L106.355 29.0239H104.831C104.375 29.0239 103.993 29.3664 103.944 29.8202L103.793 31.2231H106.038V31.2251C105.639 33.7606 105.13 36.2651 102.898 39.7764L103.787 42.3469C104.265 41.8291 104.68 41.3051 105.045 40.7832C104.688 44.2903 104.389 47.2652 104.389 47.2652H107.323C107.323 47.2652 108.552 36.6323 109.145 31.2251H110.215L110.45 29.0239Z" fill="#0A5FA5"/>
<path d="M110.419 39.8734L109.619 47.2632H118.22C120.291 47.323 121.407 46.3142 121.57 44.2388L122.216 38.2808H112.191C111.282 38.2808 110.518 38.9677 110.419 39.8734ZM113.483 41.2103C113.522 40.8472 113.827 40.5728 114.193 40.5728H118.853L118.494 43.8716C118.449 44.8494 117.972 45.3074 117.062 45.2455H113.044L113.483 41.2103Z" fill="#0A5FA5"/>
<path d="M123.544 29.6655L123.782 27.4663H116.908C116.92 27.3446 117.33 26.3667 117.413 26.1831H113.931C113.285 28.1987 112.167 29.7893 110.576 30.9487L110.349 33.0571C111.168 32.8137 111.876 32.5063 112.464 32.1411C113.145 33.1809 113.796 33.9442 114.415 34.4332C113.12 35.1057 111.618 35.7164 109.91 36.2672L109.693 38.2828C112.503 37.734 114.84 36.9996 116.714 36.0836C118.387 36.9996 120.598 37.734 123.35 38.2828L123.567 36.2672C121.624 35.5967 120.219 35.0149 119.354 34.526C121.005 33.3645 122.403 31.745 123.544 29.6655ZM116.965 32.8735C115.971 31.8977 115.265 31.0725 114.849 30.3979C114.915 30.338 115.02 30.2143 115.164 30.0307C115.298 29.9089 115.402 29.8182 115.47 29.7563H119.87C119.063 30.9796 118.096 32.0194 116.965 32.8735Z" fill="#0A5FA5"/>
<path d="M57.8349 27.0702L57.7916 27.4663H55.3902L55.5222 26.1831H53.2075C52.7516 26.1831 52.3699 26.5256 52.3204 26.9794L52.273 27.4663H47.7508C47.2949 27.4663 46.9132 27.8088 46.8637 28.2626L46.7523 29.2983H52.077L51.9779 30.2143H47.462C47.006 30.2143 46.6244 30.5567 46.5749 31.0106L45.6919 39.1967H48.5327L48.6709 37.9135H51.1465L51.0083 39.1967H54.1255L54.2638 37.9135H56.7394L56.6012 39.1967H59.442L60.4116 30.2143H55.0952L55.1942 29.2983H60.4941L60.8201 26.2739H58.722C58.2661 26.2739 57.8844 26.6184 57.8349 27.0702ZM51.3343 36.1743H48.8586L49.0072 34.8004H51.4828L51.3343 36.1743ZM51.6623 33.1479H49.1867L49.3146 31.9575H51.7902L51.6623 33.1479ZM56.9271 36.1743H54.4515L54.6001 34.8004H57.0757L56.9271 36.1743ZM57.381 31.9575L57.2531 33.1479H54.7775L54.9054 31.9575H57.381Z" fill="#0A5FA5"/>
<path d="M45.366 42.2231H56.0525L55.8462 44.1458C55.7451 44.9009 55.415 45.3176 54.5753 45.3589L51.291 45.3981L51.0909 47.2631H55.6955C57.7668 47.3229 58.8767 46.376 59.0273 44.4223L59.4812 40.2075H45.5867L45.366 42.2231Z" fill="#0A5FA5"/>
<path d="M44.0662 26.1865C43.1544 26.1865 42.391 26.8735 42.292 27.7792L42.0424 30.2631H40.425C39.969 30.2631 39.5874 30.6055 39.5379 31.0594L39.377 32.5551H41.7948L40.1919 47.2665H43.3999L45.6733 26.1886H44.0662V26.1865Z" fill="#0A5FA5"/>
<path d="M48.118 43.3806L47.8044 45.3962H51.291L51.6045 43.3806H48.118Z" fill="#0A5FA5"/>
<path d="M69.2971 28.1079H66.1098C66.1964 27.8645 66.5966 26.7112 66.6895 26.1831H63.6548C62.9987 28.0563 62.8873 28.2688 61.9961 30.2163H69.0702L69.2971 28.1079Z" fill="#0A5FA5"/>
<path d="M66.0828 38.6625H68.1912L68.4181 36.5541H66.3097L66.6253 33.6638H68.7358L68.9731 31.4646H62.0434L61.8061 33.6638H63.4173L63.1017 36.5541H61.6122L61.3853 38.6625H62.8748L61.9361 47.3128C63.896 46.8548 65.6867 46.0481 67.4176 44.93L67.6651 42.638C67.0957 42.9103 66.4108 43.2156 65.5526 43.5313L66.0828 38.6625Z" fill="#0A5FA5"/>
<path d="M81.4565 26.1831H78.2774L77.9349 28.3823H75.5047L75.3933 26.1831H72.2141L72.3255 28.3823H72.0759C71.1641 28.3823 70.4007 29.0693 70.3017 29.9749L69.4146 38.1899H71.0774C70.7515 41.1916 70.1099 42.8936 68.0798 45.4745L69.4249 47.2858C71.9583 44.5915 73.3612 43.0319 74.1018 38.1899H76.3753L75.5954 44.5358C75.3334 46.3905 76.2144 47.2858 77.8648 47.2858H80.6932L80.9346 45.2991L79.3068 45.1114C78.4961 44.9567 78.6116 44.6101 78.6838 43.9375L79.4017 38.192C80.9469 37.8103 81.3389 36.917 81.6236 34.6291L82.2982 28.3844H81.114L81.4565 26.1831ZM78.5002 34.7075C78.461 35.6235 78.0195 36.0526 77.1695 35.9907H72.8619L73.3756 31.221C73.4148 30.8579 73.7201 30.5835 74.0853 30.5835H78.9437L78.5002 34.7075Z" fill="#0A5FA5"/>
</g>
<g clip-path="url(#clip1_1813_11305)">
<path d="M201.137 46.3943L200.981 46.3564C200.884 46.3312 191.219 43.855 188.928 32.8763L188.916 32.7626V16.5325H213.316L213.303 32.8763C213.282 32.9816 211.046 43.2528 201.288 46.348L201.137 46.3943ZM190.049 32.6994C192.083 42.3094 199.878 44.8699 201.099 45.2152C209.736 42.3768 212.002 33.4658 212.183 32.6952V17.6653H190.049V32.6994Z" fill="#DBC04B"/>
<path d="M198.109 20.0232C198.042 20.0232 197.978 20.019 197.911 20.0148C196.749 19.9221 195.763 19.0588 194.98 17.4417L195.742 17.0711C196.387 18.3976 197.136 19.1009 197.974 19.1683C199.339 19.2694 200.791 17.6523 201.234 17.0164L201.929 17.5006C201.861 17.6101 200.151 20.0232 198.109 20.0232Z" fill="#DBC04B"/>
<path d="M195.877 24.3736C193.767 24.3736 192.537 23.2407 192.255 22.0784C191.982 20.9667 192.554 19.9055 193.712 19.3706L194.07 20.1413C193.274 20.5077 192.908 21.1562 193.081 21.8763C193.295 22.7565 194.319 23.6071 196.125 23.5187C199.389 23.3671 202.552 17.1302 202.581 17.0713L203.339 17.4503C203.204 17.724 199.92 24.1925 196.168 24.3694C196.066 24.3736 195.974 24.3736 195.877 24.3736Z" fill="#DBC04B"/>
<path d="M196.837 21.7035C196.323 21.7035 195.818 21.5645 195.334 21.2361C191.809 18.8399 189.817 17.6355 189.796 17.6228L190.234 16.8943C190.255 16.9069 192.259 18.1198 195.81 20.5286C196.778 21.1855 198.079 20.8276 199.675 19.4589C200.956 18.364 201.92 17.0206 201.933 17.008L202.623 17.5007C202.476 17.7071 199.583 21.7035 196.837 21.7035Z" fill="#DBC04B"/>
<path d="M194.879 26.8835C191.923 26.8835 190.684 25.3927 190.213 24.5042C189.408 23.0008 189.636 21.2489 190.276 20.2972C191.021 19.1854 192.116 18.3684 192.163 18.3347L192.668 19.0169C192.659 19.0254 191.64 19.7876 190.979 20.773C190.495 21.4974 190.322 22.9123 190.962 24.1083C191.434 24.9885 192.495 26.0371 194.883 26.0371C194.887 26.0371 194.891 26.0371 194.896 26.0371C199.444 26.0329 201.735 18.6295 201.756 18.5579L202.569 18.8022C202.543 18.8822 201.949 20.8236 200.732 22.7902C199.077 25.4643 197.06 26.8835 194.896 26.8835C194.887 26.8835 194.883 26.8835 194.879 26.8835Z" fill="#DBC04B"/>
<path d="M191.75 30.7621C191.135 30.7621 190.483 30.6442 189.969 30.2694C189.341 29.8104 189.038 29.0692 189.059 28.0712L189.91 28.0922C189.893 28.8081 190.074 29.2966 190.47 29.5872C191.278 30.181 192.845 29.8315 193.38 29.6504C201.588 26.3403 203.436 17.2062 203.457 17.1135L204.291 17.2736C204.274 17.3704 202.333 26.9552 193.679 30.4379C193.603 30.4631 192.723 30.7621 191.75 30.7621Z" fill="#DBC04B"/>
<path d="M200.834 38.3213C196.606 38.3213 194.875 29.6041 194.803 29.2335L195.637 29.0735C196.088 31.4107 197.903 37.4749 200.834 37.4749C202.64 37.4749 203.975 35.4198 204.784 33.6932C205.453 32.2614 205.87 30.8169 206.047 30.1431C203.55 29.2756 200.114 25.435 199.958 25.2623L200.594 24.698C200.632 24.7401 204.405 28.9598 206.645 29.4314L207.066 29.5199L206.974 29.941C206.894 30.2779 205.049 38.3213 200.834 38.3213Z" fill="#DBC04B"/>
<path d="M192.378 37.4243C192.209 37.4243 192.037 37.4032 191.868 37.3527C191.127 37.1463 190.609 36.5273 190.436 35.664C190.377 35.3692 190.264 33.6931 193.645 29.604L194.298 30.143C193.026 31.6886 191.076 34.5059 191.27 35.4997C191.375 36.0472 191.67 36.4178 192.095 36.5357C192.445 36.6326 192.824 36.5399 193.043 36.2999C193.266 36.0556 193.228 35.4576 192.971 35.087C192.891 34.9733 192.799 34.8933 192.702 34.8554C192.63 34.8301 192.559 34.8217 192.479 34.8386L192.323 34.0047C192.559 33.9584 192.79 33.9795 193.009 34.0679C193.262 34.1648 193.489 34.3543 193.666 34.6027C194.1 35.2218 194.226 36.2704 193.666 36.8768C193.346 37.2263 192.87 37.4243 192.378 37.4243Z" fill="#DBC04B"/>
<path d="M202.278 45.6909V44.8402C202.472 44.8402 202.893 44.4401 202.96 43.8885C203.045 43.1852 202.485 42.6504 201.377 42.3808C198.206 41.6102 197.128 40.5742 195.886 39.3698C195.768 39.2561 195.645 39.1382 195.519 39.0161C193.94 37.5169 193.144 35.8913 193.152 34.1858C193.165 31.5495 195.106 29.7176 195.191 29.6418L195.768 30.2651L195.477 29.9535L195.768 30.2651C195.751 30.282 194.012 31.937 194.003 34.2026C193.999 35.6597 194.706 37.0747 196.104 38.4054C196.231 38.5276 196.357 38.6455 196.475 38.7634C197.679 39.9257 198.627 40.8437 201.575 41.5596C203.845 42.1113 203.853 43.56 203.803 43.9937C203.693 44.8992 202.981 45.6909 202.278 45.6909Z" fill="#DBC04B"/>
<path d="M210.065 36.1649C209.715 36.1649 209.349 36.0807 208.991 35.908C207.727 35.3058 206.363 30.8335 206.106 29.9407L206.923 29.7007C207.635 32.1432 208.742 34.8426 209.361 35.1374C209.837 35.3648 210.317 35.3648 210.675 35.1416C210.962 34.9605 211.126 34.6615 211.13 34.3204C211.13 33.9667 210.97 33.6466 210.692 33.4445C210.427 33.255 210.107 33.2002 209.808 33.3013L209.538 32.4969C210.09 32.3116 210.709 32.4085 211.189 32.758C211.694 33.1244 211.985 33.6971 211.981 34.3246C211.976 34.9563 211.661 35.529 211.13 35.8617C210.806 36.0639 210.444 36.1649 210.065 36.1649Z" fill="#DBC04B"/>
<path d="M209.298 39.5846C208.679 39.5846 208.102 39.3993 207.58 39.0287C205.479 37.5379 204.982 33.533 204.961 33.3603L205.803 33.2593C205.807 33.2972 206.279 37.0662 208.069 38.3338C208.599 38.7086 209.18 38.8181 209.85 38.6707L210.035 39.5003C209.783 39.5593 209.538 39.5846 209.298 39.5846Z" fill="#DBC04B"/>
<path d="M206.498 42.3892C206.148 42.3892 205.82 42.2755 205.533 42.0481C203.853 40.7258 204.017 35.6891 204.043 35.1206L204.889 35.1585C204.83 36.5861 204.923 40.4899 206.056 41.3827C206.258 41.5427 206.481 41.5806 206.755 41.5006C207.129 41.3911 207.369 41.189 207.428 40.9279C207.479 40.7089 207.395 40.4562 207.218 40.3046C207.1 40.2036 206.898 40.1025 206.595 40.2162L206.3 39.4203C206.83 39.2223 207.369 39.3108 207.774 39.6645C208.182 40.0225 208.372 40.591 208.254 41.1132C208.127 41.6859 207.664 42.1239 206.982 42.3176C206.822 42.3681 206.658 42.3892 206.498 42.3892Z" fill="#DBC04B"/>
<path d="M201.086 34.152C200.93 34.152 200.758 34.1393 200.598 34.1014C200.105 33.9877 200.054 33.1455 200.063 31.3852C200.063 31.1325 200.067 30.9051 200.059 30.7451C200.038 30.1386 199.827 29.6544 199.427 29.3048C198.458 28.4541 196.702 28.6142 196.685 28.6184L196.631 28.0541C196.711 28.0457 198.648 27.8688 199.802 28.8795C200.324 29.3343 200.602 29.9576 200.627 30.7282C200.631 30.8967 200.631 31.1283 200.631 31.3894C200.627 31.9621 200.623 33.276 200.779 33.5582C201.065 33.6129 201.419 33.5666 201.537 33.5455L201.642 34.1014C201.621 34.1098 201.381 34.152 201.086 34.152Z" fill="#DBC04B"/>
<path d="M202.047 29.444L201.642 29.0482C201.659 29.0313 203.386 27.3173 205.357 28.9639L204.994 29.3977C203.432 28.088 202.101 29.3893 202.047 29.444Z" fill="#DBC04B"/>
<path d="M198.901 31.2631C197.541 31.2631 196.669 31.0736 196.319 30.703C196.159 30.5345 196.151 30.3787 196.151 30.3198L196.715 30.3492C196.719 30.3071 196.707 30.2903 196.707 30.2903C196.707 30.2945 196.926 30.6946 198.897 30.6946V31.2631H198.901Z" fill="#DBC04B"/>
<path d="M202.278 31.2633V30.699C204.249 30.699 204.468 30.2947 204.468 30.2947C204.468 30.2947 204.459 30.3115 204.459 30.3536L205.024 30.3242C205.028 30.3831 205.015 30.5389 204.855 30.7074C204.51 31.0738 203.638 31.2633 202.278 31.2633Z" fill="#DBC04B"/>
<path d="M202.16 35.0703H199.869V35.6346H202.16V35.0703Z" fill="#DBC04B"/>
<path d="M208.978 28.0627C208.599 28.0627 208.191 28.0501 207.757 28.0206C204.291 27.7932 203.12 26.4035 202.434 25.077C201.975 24.1884 201.945 22.4618 202.695 21.2237C203.099 20.5583 203.895 19.7666 205.373 19.7666C206.498 19.7666 207.374 20.1077 207.98 20.7815C208.658 21.5395 208.822 22.5502 208.746 23.2409C208.696 23.7083 208.405 24.4242 207.761 24.9001C207.382 25.1823 206.733 25.477 205.811 25.3002C204.135 24.9759 204.127 22.8913 204.127 22.8029L204.977 22.8071L204.552 22.8029H204.977C204.977 22.8197 204.99 24.2726 205.975 24.4621C206.472 24.559 206.902 24.4748 207.26 24.2137C207.66 23.9189 207.871 23.4641 207.908 23.144C207.963 22.6597 207.849 21.8933 207.353 21.3458C206.919 20.8615 206.253 20.6131 205.377 20.6131C204.506 20.6131 203.849 20.9668 203.423 21.6659C202.796 22.6934 202.889 24.1042 203.188 24.6895C203.794 25.8645 204.775 26.9762 207.812 27.1742C211.029 27.3847 212.553 26.6772 212.57 26.673L212.937 27.4395C212.873 27.4647 211.589 28.0627 208.978 28.0627Z" fill="#DBC04B"/>
<path d="M212.743 24.3737C208.641 24.2979 207.302 17.6231 207.247 17.3409L208.081 17.1809C208.094 17.2441 209.345 23.4641 212.76 23.5272L212.743 24.3737Z" fill="#DBC04B"/>
<path d="M211.724 21.5859C211.589 21.5859 211.467 21.5648 211.362 21.5353C209.808 21.0847 209.1 17.7284 209.024 17.3451L209.858 17.1809C210.124 18.5201 210.839 20.5036 211.597 20.7226C211.838 20.7941 212.124 20.6552 212.44 20.3183L213.059 20.8952C212.553 21.43 212.09 21.5859 211.724 21.5859Z" fill="#DBC04B"/>
<path d="M207.883 20.3605C206.46 20.3605 205.416 20.011 204.775 19.3161C204.005 18.4781 204.135 17.4674 204.14 17.4253L204.982 17.539C204.978 17.5643 204.906 18.2128 205.407 18.7518C205.946 19.3246 206.982 19.5814 208.401 19.4972L208.452 20.3437C208.258 20.3521 208.069 20.3605 207.883 20.3605Z" fill="#DBC04B"/>
<path d="M213.05 32.1602C206.531 31.8612 204.733 27.431 204.662 27.2415L205.453 26.9341C205.521 27.1025 207.146 31.04 213.093 31.3138L213.05 32.1602Z" fill="#DBC04B"/>
<path d="M197.991 40.671L197.587 39.9256C198.1 39.6477 198.168 37.8832 198.05 36.7798L198.892 36.6914C198.955 37.2389 199.187 40.0225 197.991 40.671Z" fill="#DBC04B"/>
<path d="M198.85 45.2655C196.69 39.315 192.609 39.534 192.436 39.5424L192.373 38.6959C192.571 38.6791 197.258 38.3927 199.65 44.9749L198.85 45.2655Z" fill="#DBC04B"/>
<path d="M204.965 41.2861C204.253 41.2861 203.685 41.046 203.272 40.5744C202.207 39.3573 202.661 37.0159 202.682 36.9148L203.516 37.0832C203.403 37.6475 203.255 39.2689 203.912 40.0185C204.19 40.3343 204.594 40.4691 205.142 40.4312L205.201 41.2776C205.116 41.2818 205.041 41.2861 204.965 41.2861Z" fill="#DBC04B"/>
<path d="M210.966 47.8975C210.882 47.868 210.802 47.8723 210.726 47.9102L210.082 48.226L210.359 48.7945L211 48.4787C211.075 48.4408 211.13 48.3818 211.16 48.2976C211.189 48.2176 211.181 48.1376 211.143 48.0575C211.109 47.9817 211.05 47.927 210.966 47.8975Z" fill="#DBC04B"/>
<path d="M207.471 50.8917L207.984 50.7191L207.416 49.7842L207.445 50.4917L207.471 50.8917Z" fill="#DBC04B"/>
<path d="M190.524 49.4053L191.017 49.6243L191.24 48.5588L190.781 49.0895L190.524 49.4053Z" fill="#DBC04B"/>
<path d="M197.351 51.6499L197.881 51.7467L197.848 50.656L197.523 51.2835L197.351 51.6499Z" fill="#DBC04B"/>
<path d="M216.171 46.1922L215.236 42.9453C215.236 42.9453 202.32 54.5388 186.823 42.9453L185.673 46.1922L182.591 48.1546C182.591 48.1546 199.078 63.1677 218.803 48.1546L216.171 46.1922ZM188.899 46.6344C188.848 46.5628 188.777 46.4996 188.684 46.4448C188.406 46.2806 188.175 46.3606 187.985 46.6807C187.834 46.9376 187.947 47.1102 188.208 47.4134C188.293 47.5061 188.516 47.8051 188.592 47.9061C188.592 47.9104 188.596 47.9188 188.6 47.923C188.604 47.9272 188.608 47.9356 188.608 47.9398C188.625 47.9735 188.642 48.0156 188.651 48.0704C188.693 48.302 188.613 48.5842 188.415 48.9253C188.267 49.1779 188.048 49.3422 187.766 49.4138C187.484 49.4854 187.215 49.4475 186.962 49.2959C186.709 49.1485 186.545 48.9295 186.469 48.6473C186.393 48.3652 186.431 48.0957 186.583 47.843C186.591 47.8303 186.595 47.8219 186.6 47.8135L187.029 48.0662C187.025 48.0746 187.017 48.0872 187.008 48.1041C186.916 48.2599 186.89 48.4115 186.928 48.5547C186.97 48.6979 187.059 48.8116 187.198 48.8958C187.337 48.98 187.484 49.0053 187.627 48.9716C187.775 48.9379 187.893 48.8453 187.985 48.6894C188.019 48.6305 188.048 48.5673 188.065 48.5041C188.082 48.441 188.095 48.382 188.095 48.3231C188.095 48.2641 188.09 48.2094 188.078 48.1504C188.065 48.0957 188.031 48.0325 188.015 47.9904C187.855 47.8556 187.501 47.5187 187.421 47.3461L187.417 47.3418C187.341 47.186 187.307 47.0176 187.316 46.8491C187.324 46.6765 187.37 46.5164 187.459 46.3606C187.606 46.1079 187.825 45.9479 188.107 45.8763C188.389 45.809 188.659 45.8469 188.912 45.9985C189.164 46.1459 189.329 46.3606 189.404 46.6428C189.48 46.9249 189.442 47.1902 189.295 47.4429C189.27 47.485 189.249 47.5187 189.223 47.5482L188.794 47.2955C188.819 47.266 188.844 47.2366 188.87 47.1944C188.933 47.0892 188.962 46.9881 188.962 46.8912C188.971 46.7902 188.945 46.7059 188.899 46.6344ZM191.712 49.5106L191.417 51.3762L190.722 51.0604L190.836 50.5129L190.925 50.0623L190.238 49.7507L189.943 50.1044L189.573 50.5424L189 50.2813L190.2 48.8242L190.651 48.2852L191.358 47.4345L191.986 47.7209L191.712 49.5106ZM193.51 51.0941C193.569 51.3467 193.687 51.5278 193.872 51.5615C194.125 51.6078 194.281 51.4015 194.47 51.2499L193.881 51.0604L194.041 50.5424L195.452 50.993C195.389 51.1614 195.313 51.313 195.216 51.452C195.178 51.5152 195.136 51.5783 195.09 51.6289C194.896 51.8689 194.677 52.0374 194.433 52.1384C194.188 52.2395 193.952 52.2521 193.721 52.1806C193.376 52.0711 193.14 51.8142 193.005 51.4015C192.87 50.993 192.879 50.5508 193.03 50.0834C193.178 49.6159 193.426 49.258 193.771 49.0011C194.117 48.7484 194.462 48.6768 194.803 48.7863C194.967 48.841 195.111 48.9337 195.233 49.0642C195.355 49.1948 195.447 49.359 195.511 49.5443C195.574 49.7338 195.603 49.9402 195.608 50.1634L194.963 49.957C194.946 49.8012 194.9 49.6664 194.833 49.5612C194.765 49.4517 194.681 49.3843 194.576 49.3506C194.395 49.2916 194.205 49.3506 194.007 49.5275C193.809 49.7043 193.662 49.9444 193.565 50.2518L193.561 50.256C193.472 50.5634 193.451 50.8414 193.51 51.0941ZM197.936 53.2123L197.915 52.6522L197.898 52.1932L197.157 52.0542L196.955 52.4669L196.698 52.9807L196.079 52.8628L196.9 51.1656L197.212 50.534L197.696 49.5401L198.374 49.6664L198.53 51.4689L198.686 53.3513L197.936 53.2123ZM200.813 52.4037C200.471 52.4037 200.194 52.1258 200.194 51.7847C200.194 51.4436 200.471 51.1656 200.813 51.1656C201.154 51.1656 201.432 51.4436 201.432 51.7847C201.432 52.1258 201.154 52.4037 200.813 52.4037ZM205.26 52.6648C205.083 52.9175 204.864 53.0691 204.603 53.1197C204.371 53.166 204.148 53.1323 203.92 53.0186C203.697 52.9049 203.499 52.7238 203.335 52.4838C203.171 52.2395 203.053 51.9616 202.986 51.6499L202.981 51.6373C202.885 51.1572 202.927 50.7235 203.104 50.3318C203.28 49.9402 203.546 49.7128 203.899 49.6412C204.156 49.5906 204.405 49.637 204.653 49.7886C204.902 49.9402 205.104 50.1592 205.272 50.4539L204.611 50.5887C204.518 50.4624 204.417 50.3655 204.304 50.3066C204.19 50.2476 204.081 50.2265 203.975 50.2476C203.79 50.2855 203.651 50.4287 203.563 50.6771C203.474 50.9256 203.461 51.2078 203.525 51.5236L203.529 51.5447C203.6 51.8479 203.718 52.0963 203.891 52.2858C204.064 52.4753 204.245 52.5511 204.43 52.5132C204.544 52.488 204.645 52.4248 204.725 52.3153C204.809 52.2058 204.864 52.0711 204.893 51.9026L205.563 51.7678C205.533 52.1132 205.432 52.4122 205.26 52.6648ZM208.755 51.9658L208.46 51.4899L208.216 51.0983L207.5 51.3425L207.525 51.8015L207.555 52.3743L206.957 52.5764L206.835 50.694L206.797 49.9949L206.729 48.8916L207.382 48.6684L208.405 50.1592L209.467 51.7215L208.755 51.9658ZM212.242 50.4413C212.229 50.416 212.208 50.3824 212.183 50.3445C212.158 50.3066 212.099 50.2392 212.002 50.1381C211.909 50.0412 211.808 49.957 211.703 49.8854C211.598 49.8138 211.463 49.7507 211.294 49.6917C211.126 49.6328 210.953 49.6117 210.772 49.6201L211.383 50.8624L210.806 51.1488L210.094 49.7001L209.231 47.9483L209.808 47.6619L210.364 47.3882C210.595 47.2745 210.84 47.2576 211.088 47.3418C211.336 47.4261 211.518 47.5861 211.635 47.8177C211.753 48.0535 211.766 48.2978 211.682 48.5463C211.593 48.7905 211.433 48.9716 211.202 49.0895C211.223 49.0937 211.252 49.0979 211.29 49.1063C211.391 49.1274 211.501 49.1569 211.606 49.1906C211.715 49.2285 211.85 49.2832 212.014 49.359C212.179 49.4348 212.326 49.5443 212.465 49.6833C212.6 49.8223 212.709 49.9865 212.785 50.1718L212.242 50.4413ZM214.095 49.4138L212.954 47.6324L212.949 47.6366L212.166 46.4069L213.636 45.4678L213.964 45.9816L212.979 46.6133L213.429 47.3208L214.419 46.6849L214.764 47.2239L213.779 47.8556L214.234 48.5631L215.219 47.9314L215.569 48.4747L214.095 49.4138Z" fill="#DBC04B"/>
<path d="M185.812 9.10352C185.812 9.10352 187.766 10.5143 186.587 13.8454C186.587 13.8454 189.404 12.4093 191.476 13.6727C191.476 13.6727 189.232 15.972 186.271 14.0475C186.271 14.0475 183.883 12.2956 185.812 9.10352Z" fill="#DBC04B"/>
<path d="M190.916 6.05054C190.916 6.05054 192.559 7.81504 190.748 10.8556C190.748 10.8556 193.793 10.0007 195.574 11.6473C195.574 11.6473 192.925 13.4623 190.398 10.9945C190.398 10.9861 188.402 8.80047 190.916 6.05054Z" fill="#DBC04B"/>
<path d="M182.603 12.6875C182.603 12.6875 184.557 14.0983 183.378 17.4294C183.378 17.4294 186.195 15.9933 188.267 17.2567C188.267 17.2567 186.023 19.556 183.062 17.6315C183.062 17.6357 180.679 15.8796 182.603 12.6875Z" fill="#DBC04B"/>
<path d="M179.47 16.8354C179.47 16.8354 181.715 17.7156 181.395 21.2404C181.395 21.2404 183.77 19.1516 186.09 19.8675C186.09 19.8675 184.486 22.6512 181.142 21.5141C181.138 21.5141 178.392 20.4024 179.47 16.8354Z" fill="#DBC04B"/>
<path d="M177.436 21.1982C177.436 21.1982 179.794 21.6952 180.068 25.22C180.068 25.22 182.06 22.7648 184.464 23.0807C184.464 23.0807 183.348 26.0917 179.857 25.5316C179.862 25.5316 176.968 24.8957 177.436 21.1982Z" fill="#DBC04B"/>
<path d="M176.072 26.1045C176.072 26.1045 178.48 26.1171 179.457 29.5198C179.457 29.5198 180.919 26.7151 183.34 26.5425C183.34 26.5425 182.847 29.7177 179.318 29.8651C179.314 29.8651 176.354 29.823 176.072 26.1045Z" fill="#DBC04B"/>
<path d="M176 30.5137C176 30.5137 178.405 30.3368 179.643 33.651C179.643 33.651 180.877 30.7369 183.277 30.3789C183.277 30.3789 183.037 33.5837 179.529 34.009C179.529 34.009 176.577 34.1985 176 30.5137Z" fill="#DBC04B"/>
<path d="M177.596 40.5911C177.596 40.5911 179.647 39.3235 182.275 41.6902C182.275 41.6902 182.026 38.536 183.989 37.1084C183.989 37.1084 185.256 40.0605 182.342 42.0608C182.338 42.0566 179.807 43.5895 177.596 40.5911Z" fill="#DBC04B"/>
<path d="M176.147 35.8534C176.147 35.8534 178.413 35.0364 180.502 37.8959C180.502 37.8959 180.91 34.7585 183.121 33.7646C183.121 33.7646 183.753 36.9147 180.489 38.2707C180.485 38.2707 177.693 39.2477 176.147 35.8534Z" fill="#DBC04B"/>
<path d="M179.971 45.0381C179.971 45.0381 181.71 43.3663 184.776 45.1266C184.776 45.1266 183.867 42.0945 185.484 40.2878C185.484 40.2878 187.345 42.9072 184.915 45.4761C184.919 45.4719 182.767 47.5059 179.971 45.0381Z" fill="#DBC04B"/>
<path d="M199.377 8.25301C199.377 8.25301 195.292 7.1244 193.03 9.81959C193.03 9.8238 196.227 11.323 199.377 8.25301Z" fill="#DBC04B"/>
<path d="M216.188 9.05322C216.188 9.05322 214.234 10.464 215.413 13.7951C215.413 13.7951 212.596 12.359 210.524 13.6224C210.524 13.6224 212.768 15.9217 215.729 13.9972C215.729 14.0014 218.117 12.2453 216.188 9.05322Z" fill="#DBC04B"/>
<path d="M211.084 6C211.084 6 209.442 7.76451 211.252 10.805C211.252 10.805 208.208 9.95014 206.426 11.5967C206.426 11.5967 209.075 13.4118 211.602 10.944C211.602 10.9398 213.598 8.74994 211.084 6Z" fill="#DBC04B"/>
<path d="M219.397 12.6411C219.397 12.6411 217.443 14.0519 218.622 17.383C218.622 17.383 215.804 15.9469 213.732 17.2103C213.732 17.2103 215.977 19.5096 218.938 17.5851C218.938 17.5851 221.321 15.8332 219.397 12.6411Z" fill="#DBC04B"/>
<path d="M222.53 16.7852C222.53 16.7852 220.285 17.6653 220.605 21.1901C220.605 21.1901 218.23 19.1013 215.91 19.8172C215.91 19.8172 217.514 22.6009 220.858 21.4638C220.862 21.4638 223.608 20.3563 222.53 16.7852Z" fill="#DBC04B"/>
<path d="M224.564 21.1479C224.564 21.1479 222.205 21.6449 221.932 25.1697C221.932 25.1697 219.94 22.7145 217.535 23.0304C217.535 23.0304 218.651 26.0414 222.142 25.4813C222.138 25.4813 225.031 24.8496 224.564 21.1479Z" fill="#DBC04B"/>
<path d="M225.929 26.0581C225.929 26.0581 223.52 26.0707 222.543 29.4734C222.543 29.4734 221.081 26.6687 218.66 26.4961C218.66 26.4961 219.153 29.6713 222.682 29.8187C222.686 29.8187 225.646 29.7724 225.929 26.0581Z" fill="#DBC04B"/>
<path d="M226 30.4675C226 30.4675 223.595 30.2907 222.357 33.6049C222.357 33.6049 221.123 30.6907 218.723 30.3328C218.723 30.3328 218.963 33.5375 222.471 33.9628C222.471 33.9586 225.423 34.1481 226 30.4675Z" fill="#DBC04B"/>
<path d="M224.404 40.5406C224.404 40.5406 222.353 39.273 219.725 41.6397C219.725 41.6397 219.974 38.4855 218.011 37.0579C218.011 37.0579 216.744 40.0099 219.658 42.0103C219.662 42.0103 222.193 43.5432 224.404 40.5406Z" fill="#DBC04B"/>
<path d="M225.853 35.8031C225.853 35.8031 223.587 34.9862 221.498 37.8456C221.498 37.8456 221.09 34.7082 218.879 33.7144C218.879 33.7144 218.247 36.8644 221.511 38.2204C221.515 38.2204 224.307 39.1974 225.853 35.8031Z" fill="#DBC04B"/>
<path d="M222.029 44.9878C222.029 44.9878 220.289 43.316 217.224 45.0763C217.224 45.0763 218.133 42.0442 216.516 40.2375C216.516 40.2375 214.655 42.8569 217.085 45.4258C217.08 45.4258 219.232 47.4556 222.029 44.9878Z" fill="#DBC04B"/>
<path d="M202.623 8.20662C202.623 8.20662 206.708 7.07801 208.97 9.7732C208.97 9.7732 205.773 11.2724 202.623 8.20662Z" fill="#DBC04B"/>
<path d="M186.381 46.7731C181.58 42.5703 178.822 36.4977 178.822 30.1177C178.822 20.9162 184.359 12.8179 192.933 9.48686C193.245 9.36895 193.561 9.25524 193.877 9.14575L194.079 9.74375C193.771 9.84903 193.464 9.95852 193.165 10.0764C184.835 13.3149 179.453 21.1815 179.453 30.1177C179.453 36.3166 182.132 42.2124 186.798 46.2973L186.381 46.7731Z" fill="#DBC04B"/>
<path d="M215.518 46.7731L215.101 46.2973C219.767 42.2124 222.446 36.3166 222.446 30.1177C222.446 21.59 217.401 13.8623 209.593 10.4302C209.058 10.1986 208.511 9.98379 207.963 9.79428L208.17 9.19629C208.734 9.39001 209.298 9.6132 209.846 9.85324C217.881 13.3865 223.078 21.3415 223.078 30.1177C223.078 36.4977 220.319 42.5703 215.518 46.7731Z" fill="#DBC04B"/>
</g>
<path fill-rule="evenodd" clip-rule="evenodd" d="M149.519 30.4028L158.599 40.7869L159.021 40.5192L149.847 30.0275L159.021 19.5357L158.599 19.268L149.519 29.6521L140.204 19L139.782 19.2677L149.191 30.0275L139.782 40.7872L140.204 41.0549L149.519 30.4028Z" fill="#0A5FA5"/>
<defs>
<linearGradient id="paint0_linear_1813_11305" x1="16.0892" y1="59.6556" x2="16.0892" y2="0.999348" gradientUnits="userSpaceOnUse">
<stop stop-color="#03E7D4"/>
<stop offset="1" stop-color="#6E82F3"/>
</linearGradient>
<clipPath id="clip0_1813_11305">
<rect width="123.782" height="58.656" fill="white" transform="translate(0 1)"/>
</clipPath>
<clipPath id="clip1_1813_11305">
<rect width="50" height="48.8251" fill="white" transform="translate(176 6)"/>
</clipPath>
</defs>
</svg>
