<svg width="36" height="196" viewBox="0 0 36 196" fill="none" xmlns="http://www.w3.org/2000/svg">
<rect width="36" height="196" rx="8" fill="url(#paint0_linear_660_16273)"/>
<path d="M18.5027 8.808C17.3267 8.808 16.4167 9.284 15.7727 10.264C15.1567 11.188 14.8487 12.434 14.8487 14.002C14.8487 15.57 15.1567 16.816 15.7727 17.74C16.4167 18.706 17.3267 19.196 18.5027 19.196C19.6647 19.196 20.5747 18.706 21.2327 17.74C21.8487 16.816 22.1567 15.57 22.1567 14.002C22.1567 12.434 21.8487 11.188 21.2327 10.264C20.5747 9.284 19.6647 8.808 18.5027 8.808ZM18.5027 10.194C19.2867 10.194 19.8467 10.628 20.1827 11.524C20.4067 12.126 20.5187 12.952 20.5187 14.002C20.5187 15.038 20.4067 15.864 20.1827 16.48C19.8467 17.362 19.2867 17.81 18.5027 17.81C17.7047 17.81 17.1447 17.362 16.8227 16.48C16.5987 15.864 16.4867 15.038 16.4867 14.002C16.4867 12.952 16.5987 12.126 16.8227 11.524C17.1447 10.628 17.7047 10.194 18.5027 10.194Z" fill="#3B3558"/>
<path d="M10.8536 69.004V70.488H15.9636L12.3796 79H14.1156L17.6156 70.32V69.004H10.8536ZM19.4599 69.004L18.9139 74.632H20.4399C20.6359 74.282 20.9019 74.03 21.2519 73.862C21.5599 73.708 21.9379 73.638 22.3719 73.638C23.0159 73.638 23.5199 73.82 23.8559 74.212C24.1919 74.59 24.3739 75.122 24.3739 75.794C24.3739 76.41 24.1639 76.9 23.7719 77.264C23.3659 77.628 22.8619 77.81 22.2739 77.81C21.7279 77.81 21.2939 77.684 20.9859 77.46C20.6219 77.194 20.4119 76.788 20.3419 76.242H18.7319C18.8019 77.166 19.1939 77.908 19.9219 78.454C20.5659 78.944 21.3499 79.196 22.2599 79.196C23.2539 79.196 24.1079 78.902 24.8359 78.314C25.6199 77.656 26.0119 76.816 26.0119 75.78C26.0119 74.702 25.7039 73.848 25.1159 73.232C24.5279 72.616 23.7579 72.308 22.8199 72.308C22.3719 72.308 21.9659 72.378 21.6019 72.518C21.1959 72.658 20.8459 72.882 20.5379 73.19H20.4959L20.7759 70.446H25.5499V69.004H19.4599Z" fill="#3B3558"/>
<path d="M14.4035 38.808C13.4235 38.808 12.6115 39.074 11.9815 39.634C11.3095 40.194 10.9455 40.978 10.8615 41.986H12.4715C12.5275 41.384 12.7235 40.936 13.0595 40.642C13.3815 40.348 13.8295 40.208 14.4175 40.208C14.9915 40.208 15.4255 40.334 15.7195 40.586C15.9855 40.838 16.1255 41.202 16.1255 41.692C16.1255 42.182 15.9715 42.56 15.6775 42.812C15.3695 43.064 14.9215 43.19 14.3335 43.19H13.6335V44.422H14.3335C14.9775 44.422 15.4675 44.548 15.8035 44.828C16.1395 45.094 16.3215 45.514 16.3215 46.088C16.3215 46.564 16.1535 46.956 15.8315 47.278C15.4675 47.628 14.9635 47.81 14.3335 47.81C13.7595 47.81 13.2975 47.642 12.9475 47.32C12.5555 46.97 12.3595 46.466 12.3315 45.822H10.6655C10.7495 46.942 11.1415 47.81 11.8415 48.398C12.4715 48.93 13.3115 49.196 14.3475 49.196C15.4395 49.196 16.3215 48.888 16.9935 48.286C17.6375 47.698 17.9595 46.942 17.9595 46.018C17.9595 45.43 17.7915 44.94 17.4555 44.562C17.1475 44.198 16.6855 43.932 16.0975 43.75C17.2035 43.386 17.7635 42.658 17.7635 41.566C17.7635 40.698 17.4555 40.026 16.8535 39.536C16.2375 39.046 15.4115 38.808 14.4035 38.808ZM19.788 39.004L19.242 44.632H20.768C20.964 44.282 21.23 44.03 21.58 43.862C21.888 43.708 22.266 43.638 22.7 43.638C23.344 43.638 23.848 43.82 24.184 44.212C24.52 44.59 24.702 45.122 24.702 45.794C24.702 46.41 24.492 46.9 24.1 47.264C23.694 47.628 23.19 47.81 22.602 47.81C22.056 47.81 21.622 47.684 21.314 47.46C20.95 47.194 20.74 46.788 20.67 46.242H19.06C19.13 47.166 19.522 47.908 20.25 48.454C20.894 48.944 21.678 49.196 22.588 49.196C23.582 49.196 24.436 48.902 25.164 48.314C25.948 47.656 26.34 46.816 26.34 45.78C26.34 44.702 26.032 43.848 25.444 43.232C24.856 42.616 24.086 42.308 23.148 42.308C22.7 42.308 22.294 42.378 21.93 42.518C21.524 42.658 21.174 42.882 20.866 43.19H20.824L21.104 40.446H25.878V39.004H19.788Z" fill="#3B3558"/>
<path d="M10.4824 109.004C10.1464 109.354 9.72638 109.676 9.22238 109.984C8.71838 110.264 8.24238 110.46 7.79438 110.572V112.196C8.71838 111.93 9.47438 111.524 10.0764 110.978V119H11.7144V109.004H10.4824ZM14.2646 109.004L13.7186 114.632H15.2446C15.4406 114.282 15.7066 114.03 16.0566 113.862C16.3646 113.708 16.7426 113.638 17.1766 113.638C17.8206 113.638 18.3246 113.82 18.6606 114.212C18.9966 114.59 19.1786 115.122 19.1786 115.794C19.1786 116.41 18.9686 116.9 18.5766 117.264C18.1706 117.628 17.6666 117.81 17.0786 117.81C16.5326 117.81 16.0986 117.684 15.7906 117.46C15.4266 117.194 15.2166 116.788 15.1466 116.242H13.5366C13.6066 117.166 13.9986 117.908 14.7266 118.454C15.3706 118.944 16.1546 119.196 17.0646 119.196C18.0586 119.196 18.9126 118.902 19.6406 118.314C20.4246 117.656 20.8166 116.816 20.8166 115.78C20.8166 114.702 20.5086 113.848 19.9206 113.232C19.3326 112.616 18.5626 112.308 17.6246 112.308C17.1766 112.308 16.7706 112.378 16.4066 112.518C16.0006 112.658 15.6506 112.882 15.3426 113.19H15.3006L15.5806 110.446H20.3546V109.004H14.2646ZM25.5711 108.808C24.3951 108.808 23.4851 109.284 22.8411 110.264C22.2251 111.188 21.9171 112.434 21.9171 114.002C21.9171 115.57 22.2251 116.816 22.8411 117.74C23.4851 118.706 24.3951 119.196 25.5711 119.196C26.7331 119.196 27.6431 118.706 28.3011 117.74C28.9171 116.816 29.2251 115.57 29.2251 114.002C29.2251 112.434 28.9171 111.188 28.3011 110.264C27.6431 109.284 26.7331 108.808 25.5711 108.808ZM25.5711 110.194C26.3551 110.194 26.9151 110.628 27.2511 111.524C27.4751 112.126 27.5871 112.952 27.5871 114.002C27.5871 115.038 27.4751 115.864 27.2511 116.48C26.9151 117.362 26.3551 117.81 25.5711 117.81C24.7731 117.81 24.2131 117.362 23.8911 116.48C23.6671 115.864 23.5551 115.038 23.5551 114.002C23.5551 112.952 23.6671 112.126 23.8911 111.524C24.2131 110.628 24.7731 110.194 25.5711 110.194Z" fill="#3B3558"/>
<path d="M9.7622 176.808C8.6842 176.808 7.8162 177.172 7.1582 177.9C6.5142 178.586 6.1922 179.482 6.1782 180.602H7.8162C7.8442 179.818 8.0122 179.216 8.3202 178.824C8.6282 178.404 9.0902 178.194 9.7062 178.194C10.2802 178.194 10.7142 178.32 11.0082 178.586C11.2882 178.852 11.4422 179.258 11.4422 179.804C11.4422 180.364 11.2182 180.896 10.7842 181.386C10.5042 181.68 10.0562 182.058 9.4122 182.506C8.2502 183.304 7.4802 183.92 7.1162 184.34C6.4442 185.096 6.1222 185.978 6.1222 187H13.0942V185.558H8.1662C8.3902 185.054 9.0062 184.466 10.0282 183.794C11.0082 183.136 11.7082 182.604 12.1002 182.184C12.7442 181.47 13.0802 180.686 13.0802 179.818C13.0802 178.922 12.7722 178.208 12.1562 177.648C11.5262 177.088 10.7282 176.808 9.7622 176.808ZM15.0907 177.004L14.5447 182.632H16.0707C16.2667 182.282 16.5327 182.03 16.8827 181.862C17.1907 181.708 17.5687 181.638 18.0027 181.638C18.6467 181.638 19.1507 181.82 19.4867 182.212C19.8227 182.59 20.0047 183.122 20.0047 183.794C20.0047 184.41 19.7947 184.9 19.4027 185.264C18.9967 185.628 18.4927 185.81 17.9047 185.81C17.3587 185.81 16.9247 185.684 16.6167 185.46C16.2527 185.194 16.0427 184.788 15.9727 184.242H14.3627C14.4327 185.166 14.8247 185.908 15.5527 186.454C16.1967 186.944 16.9807 187.196 17.8907 187.196C18.8847 187.196 19.7387 186.902 20.4667 186.314C21.2507 185.656 21.6427 184.816 21.6427 183.78C21.6427 182.702 21.3347 181.848 20.7467 181.232C20.1587 180.616 19.3887 180.308 18.4507 180.308C18.0027 180.308 17.5967 180.378 17.2327 180.518C16.8267 180.658 16.4767 180.882 16.1687 181.19H16.1267L16.4067 178.446H21.1807V177.004H15.0907ZM26.3973 176.808C25.2213 176.808 24.3113 177.284 23.6673 178.264C23.0513 179.188 22.7433 180.434 22.7433 182.002C22.7433 183.57 23.0513 184.816 23.6673 185.74C24.3113 186.706 25.2213 187.196 26.3973 187.196C27.5593 187.196 28.4693 186.706 29.1273 185.74C29.7433 184.816 30.0513 183.57 30.0513 182.002C30.0513 180.434 29.7433 179.188 29.1273 178.264C28.4693 177.284 27.5593 176.808 26.3973 176.808ZM26.3973 178.194C27.1813 178.194 27.7413 178.628 28.0773 179.524C28.3013 180.126 28.4133 180.952 28.4133 182.002C28.4133 183.038 28.3013 183.864 28.0773 184.48C27.7413 185.362 27.1813 185.81 26.3973 185.81C25.5993 185.81 25.0393 185.362 24.7173 184.48C24.4933 183.864 24.3813 183.038 24.3813 182.002C24.3813 180.952 24.4933 180.126 24.7173 179.524C25.0393 178.628 25.5993 178.194 26.3973 178.194Z" fill="#3B3558"/>
<defs>
<linearGradient id="paint0_linear_660_16273" x1="17.9747" y1="195.994" x2="58.7739" y2="8.90026" gradientUnits="userSpaceOnUse">
<stop offset="0.0651409" stop-color="#FBB1AD"/>
<stop offset="0.41714" stop-color="#F4EBA9"/>
<stop offset="0.620488" stop-color="#F4EBA9"/>
<stop offset="0.779965" stop-color="#C4F2BF"/>
</linearGradient>
</defs>
</svg>
