<svg width="36" height="196" viewBox="0 0 36 196" fill="none" xmlns="http://www.w3.org/2000/svg">
<rect width="36" height="196" rx="8" fill="url(#paint0_linear_660_15882)"/>
<path d="M18.5027 8.808C17.3267 8.808 16.4167 9.284 15.7727 10.264C15.1567 11.188 14.8487 12.434 14.8487 14.002C14.8487 15.57 15.1567 16.816 15.7727 17.74C16.4167 18.706 17.3267 19.196 18.5027 19.196C19.6647 19.196 20.5747 18.706 21.2327 17.74C21.8487 16.816 22.1567 15.57 22.1567 14.002C22.1567 12.434 21.8487 11.188 21.2327 10.264C20.5747 9.284 19.6647 8.808 18.5027 8.808ZM18.5027 10.194C19.2867 10.194 19.8467 10.628 20.1827 11.524C20.4067 12.126 20.5187 12.952 20.5187 14.002C20.5187 15.038 20.4067 15.864 20.1827 16.48C19.8467 17.362 19.2867 17.81 18.5027 17.81C17.7047 17.81 17.1447 17.362 16.8227 16.48C16.5987 15.864 16.4867 15.038 16.4867 14.002C16.4867 12.952 16.5987 12.126 16.8227 11.524C17.1447 10.628 17.7047 10.194 18.5027 10.194Z" fill="#3B3558"/>
<path d="M14.4035 57.808C13.4235 57.808 12.6115 58.074 11.9815 58.634C11.3095 59.194 10.9455 59.978 10.8615 60.986H12.4715C12.5275 60.384 12.7235 59.936 13.0595 59.642C13.3815 59.348 13.8295 59.208 14.4175 59.208C14.9915 59.208 15.4255 59.334 15.7195 59.586C15.9855 59.838 16.1255 60.202 16.1255 60.692C16.1255 61.182 15.9715 61.56 15.6775 61.812C15.3695 62.064 14.9215 62.19 14.3335 62.19H13.6335V63.422H14.3335C14.9775 63.422 15.4675 63.548 15.8035 63.828C16.1395 64.094 16.3215 64.514 16.3215 65.088C16.3215 65.564 16.1535 65.956 15.8315 66.278C15.4675 66.628 14.9635 66.81 14.3335 66.81C13.7595 66.81 13.2975 66.642 12.9475 66.32C12.5555 65.97 12.3595 65.466 12.3315 64.822H10.6655C10.7495 65.942 11.1415 66.81 11.8415 67.398C12.4715 67.93 13.3115 68.196 14.3475 68.196C15.4395 68.196 16.3215 67.888 16.9935 67.286C17.6375 66.698 17.9595 65.942 17.9595 65.018C17.9595 64.43 17.7915 63.94 17.4555 63.562C17.1475 63.198 16.6855 62.932 16.0975 62.75C17.2035 62.386 17.7635 61.658 17.7635 60.566C17.7635 59.698 17.4555 59.026 16.8535 58.536C16.2375 58.046 15.4115 57.808 14.4035 57.808ZM19.788 58.004L19.242 63.632H20.768C20.964 63.282 21.23 63.03 21.58 62.862C21.888 62.708 22.266 62.638 22.7 62.638C23.344 62.638 23.848 62.82 24.184 63.212C24.52 63.59 24.702 64.122 24.702 64.794C24.702 65.41 24.492 65.9 24.1 66.264C23.694 66.628 23.19 66.81 22.602 66.81C22.056 66.81 21.622 66.684 21.314 66.46C20.95 66.194 20.74 65.788 20.67 65.242H19.06C19.13 66.166 19.522 66.908 20.25 67.454C20.894 67.944 21.678 68.196 22.588 68.196C23.582 68.196 24.436 67.902 25.164 67.314C25.948 66.656 26.34 65.816 26.34 64.78C26.34 63.702 26.032 62.848 25.444 62.232C24.856 61.616 24.086 61.308 23.148 61.308C22.7 61.308 22.294 61.378 21.93 61.518C21.524 61.658 21.174 61.882 20.866 62.19H20.824L21.104 59.446H25.878V58.004H19.788Z" fill="#3B3558"/>
<path d="M14.4035 33.808C13.4235 33.808 12.6115 34.074 11.9815 34.634C11.3095 35.194 10.9455 35.978 10.8615 36.986H12.4715C12.5275 36.384 12.7235 35.936 13.0595 35.642C13.3815 35.348 13.8295 35.208 14.4175 35.208C14.9915 35.208 15.4255 35.334 15.7195 35.586C15.9855 35.838 16.1255 36.202 16.1255 36.692C16.1255 37.182 15.9715 37.56 15.6775 37.812C15.3695 38.064 14.9215 38.19 14.3335 38.19H13.6335V39.422H14.3335C14.9775 39.422 15.4675 39.548 15.8035 39.828C16.1395 40.094 16.3215 40.514 16.3215 41.088C16.3215 41.564 16.1535 41.956 15.8315 42.278C15.4675 42.628 14.9635 42.81 14.3335 42.81C13.7595 42.81 13.2975 42.642 12.9475 42.32C12.5555 41.97 12.3595 41.466 12.3315 40.822H10.6655C10.7495 41.942 11.1415 42.81 11.8415 43.398C12.4715 43.93 13.3115 44.196 14.3475 44.196C15.4395 44.196 16.3215 43.888 16.9935 43.286C17.6375 42.698 17.9595 41.942 17.9595 41.018C17.9595 40.43 17.7915 39.94 17.4555 39.562C17.1475 39.198 16.6855 38.932 16.0975 38.75C17.2035 38.386 17.7635 37.658 17.7635 36.566C17.7635 35.698 17.4555 35.026 16.8535 34.536C16.2375 34.046 15.4115 33.808 14.4035 33.808ZM22.7 33.808C21.524 33.808 20.614 34.284 19.97 35.264C19.354 36.188 19.046 37.434 19.046 39.002C19.046 40.57 19.354 41.816 19.97 42.74C20.614 43.706 21.524 44.196 22.7 44.196C23.862 44.196 24.772 43.706 25.43 42.74C26.046 41.816 26.354 40.57 26.354 39.002C26.354 37.434 26.046 36.188 25.43 35.264C24.772 34.284 23.862 33.808 22.7 33.808ZM22.7 35.194C23.484 35.194 24.044 35.628 24.38 36.524C24.604 37.126 24.716 37.952 24.716 39.002C24.716 40.038 24.604 40.864 24.38 41.48C24.044 42.362 23.484 42.81 22.7 42.81C21.902 42.81 21.342 42.362 21.02 41.48C20.796 40.864 20.684 40.038 20.684 39.002C20.684 37.952 20.796 37.126 21.02 36.524C21.342 35.628 21.902 35.194 22.7 35.194Z" fill="#3B3558"/>
<path d="M14.4455 128.808C13.2835 128.808 12.3595 129.312 11.6875 130.32C11.0015 131.328 10.6655 132.644 10.6655 134.282C10.6655 135.808 10.9735 136.998 11.6175 137.866C12.2615 138.748 13.1995 139.196 14.4315 139.196C15.4255 139.196 16.2655 138.86 16.9375 138.216C17.6095 137.572 17.9595 136.746 17.9595 135.738C17.9595 134.758 17.6655 133.946 17.0775 133.316C16.4895 132.686 15.7055 132.378 14.7255 132.378C14.2215 132.378 13.7735 132.462 13.3815 132.658C12.9615 132.854 12.6115 133.148 12.3315 133.568H12.2615V133.442C12.2615 132.518 12.4435 131.748 12.8355 131.132C13.2275 130.474 13.7595 130.152 14.4315 130.152C15.3835 130.152 15.9715 130.614 16.1675 131.538H17.7635C17.5115 129.718 16.4055 128.808 14.4455 128.808ZM14.3755 133.708C14.9775 133.708 15.4535 133.89 15.8175 134.268C16.1535 134.632 16.3355 135.122 16.3355 135.738C16.3355 136.354 16.1535 136.858 15.7895 137.25C15.4255 137.642 14.9635 137.838 14.3755 137.838C13.8015 137.838 13.3395 137.656 12.9755 137.292C12.6115 136.928 12.4295 136.424 12.4295 135.794C12.4295 135.15 12.5975 134.632 12.9475 134.268C13.2835 133.89 13.7595 133.708 14.3755 133.708ZM19.788 129.004L19.242 134.632H20.768C20.964 134.282 21.23 134.03 21.58 133.862C21.888 133.708 22.266 133.638 22.7 133.638C23.344 133.638 23.848 133.82 24.184 134.212C24.52 134.59 24.702 135.122 24.702 135.794C24.702 136.41 24.492 136.9 24.1 137.264C23.694 137.628 23.19 137.81 22.602 137.81C22.056 137.81 21.622 137.684 21.314 137.46C20.95 137.194 20.74 136.788 20.67 136.242H19.06C19.13 137.166 19.522 137.908 20.25 138.454C20.894 138.944 21.678 139.196 22.588 139.196C23.582 139.196 24.436 138.902 25.164 138.314C25.948 137.656 26.34 136.816 26.34 135.78C26.34 134.702 26.032 133.848 25.444 133.232C24.856 132.616 24.086 132.308 23.148 132.308C22.7 132.308 22.294 132.378 21.93 132.518C21.524 132.658 21.174 132.882 20.866 133.19H20.824L21.104 130.446H25.878V129.004H19.788Z" fill="#3B3558"/>
<path d="M14.1935 176.808C13.1855 176.808 12.3455 177.13 11.6735 177.788C11.0015 178.432 10.6655 179.258 10.6655 180.266C10.6655 181.246 10.9455 182.044 11.5335 182.66C12.1215 183.304 12.9195 183.626 13.8995 183.626C14.4035 183.626 14.8515 183.528 15.2435 183.346C15.6495 183.15 15.9995 182.842 16.2935 182.436H16.3635V182.562C16.3635 183.486 16.1675 184.256 15.7895 184.872C15.3835 185.516 14.8515 185.852 14.1935 185.852C13.2275 185.852 12.6535 185.39 12.4575 184.466H10.8615C11.0995 186.286 12.2055 187.196 14.1795 187.196C15.3275 187.196 16.2515 186.692 16.9375 185.684C17.6095 184.676 17.9595 183.346 17.9595 181.722C17.9595 180.182 17.6375 178.992 16.9935 178.124C16.3495 177.242 15.4115 176.808 14.1935 176.808ZM14.2495 178.166C14.8095 178.166 15.2855 178.348 15.6495 178.712C16.0135 179.076 16.1955 179.566 16.1955 180.21C16.1955 180.854 16.0135 181.358 15.6775 181.736C15.3275 182.1 14.8515 182.296 14.2495 182.296C13.6335 182.296 13.1575 182.1 12.8215 181.736C12.4575 181.372 12.2895 180.882 12.2895 180.266C12.2895 179.65 12.4575 179.146 12.8215 178.754C13.1855 178.362 13.6615 178.166 14.2495 178.166ZM19.788 177.004L19.242 182.632H20.768C20.964 182.282 21.23 182.03 21.58 181.862C21.888 181.708 22.266 181.638 22.7 181.638C23.344 181.638 23.848 181.82 24.184 182.212C24.52 182.59 24.702 183.122 24.702 183.794C24.702 184.41 24.492 184.9 24.1 185.264C23.694 185.628 23.19 185.81 22.602 185.81C22.056 185.81 21.622 185.684 21.314 185.46C20.95 185.194 20.74 184.788 20.67 184.242H19.06C19.13 185.166 19.522 185.908 20.25 186.454C20.894 186.944 21.678 187.196 22.588 187.196C23.582 187.196 24.436 186.902 25.164 186.314C25.948 185.656 26.34 184.816 26.34 183.78C26.34 182.702 26.032 181.848 25.444 181.232C24.856 180.616 24.086 180.308 23.148 180.308C22.7 180.308 22.294 180.378 21.93 180.518C21.524 180.658 21.174 180.882 20.866 181.19H20.824L21.104 178.446H25.878V177.004H19.788Z" fill="#3B3558"/>
<defs>
<linearGradient id="paint0_linear_660_15882" x1="0" y1="1.74623e-10" x2="-21.4739" y2="180.812" gradientUnits="userSpaceOnUse">
<stop offset="0.0859742" stop-color="#FBB1AD"/>
<stop offset="0.218253" stop-color="#F4EBA9"/>
<stop offset="0.346381" stop-color="#C4F2BF"/>
<stop offset="0.748415" stop-color="#C4F2BF"/>
<stop offset="0.995671" stop-color="#B0EEE8"/>
</linearGradient>
</defs>
</svg>
