<svg width="36" height="196" viewBox="0 0 36 196" fill="none" xmlns="http://www.w3.org/2000/svg">
<rect width="36" height="196" rx="8" fill="url(#paint0_linear_1813_11196)"/>
<path d="M14.4595 8.808C13.3815 8.808 12.5135 9.172 11.8555 9.9C11.2115 10.586 10.8895 11.482 10.8755 12.602H12.5135C12.5415 11.818 12.7095 11.216 13.0175 10.824C13.3255 10.404 13.7875 10.194 14.4035 10.194C14.9775 10.194 15.4115 10.32 15.7055 10.586C15.9855 10.852 16.1395 11.258 16.1395 11.804C16.1395 12.364 15.9155 12.896 15.4815 13.386C15.2015 13.68 14.7535 14.058 14.1095 14.506C12.9475 15.304 12.1775 15.92 11.8135 16.34C11.1415 17.096 10.8195 17.978 10.8195 19H17.7915V17.558H12.8635C13.0875 17.054 13.7035 16.466 14.7255 15.794C15.7055 15.136 16.4055 14.604 16.7975 14.184C17.4415 13.47 17.7775 12.686 17.7775 11.818C17.7775 10.922 17.4695 10.208 16.8535 9.648C16.2235 9.088 15.4255 8.808 14.4595 8.808ZM22.7 8.808C21.524 8.808 20.614 9.284 19.97 10.264C19.354 11.188 19.046 12.434 19.046 14.002C19.046 15.57 19.354 16.816 19.97 17.74C20.614 18.706 21.524 19.196 22.7 19.196C23.862 19.196 24.772 18.706 25.43 17.74C26.046 16.816 26.354 15.57 26.354 14.002C26.354 12.434 26.046 11.188 25.43 10.264C24.772 9.284 23.862 8.808 22.7 8.808ZM22.7 10.194C23.484 10.194 24.044 10.628 24.38 11.524C24.604 12.126 24.716 12.952 24.716 14.002C24.716 15.038 24.604 15.864 24.38 16.48C24.044 17.362 23.484 17.81 22.7 17.81C21.902 17.81 21.342 17.362 21.02 16.48C20.796 15.864 20.684 15.038 20.684 14.002C20.684 12.952 20.796 12.126 21.02 11.524C21.342 10.628 21.902 10.194 22.7 10.194Z" fill="#3B3558"/>
<path d="M14.4595 33.5004C13.3815 33.5004 12.5135 33.8644 11.8555 34.5924C11.2115 35.2784 10.8895 36.1744 10.8755 37.2944H12.5135C12.5415 36.5104 12.7095 35.9084 13.0175 35.5164C13.3255 35.0964 13.7875 34.8864 14.4035 34.8864C14.9775 34.8864 15.4115 35.0124 15.7055 35.2784C15.9855 35.5444 16.1395 35.9504 16.1395 36.4964C16.1395 37.0564 15.9155 37.5884 15.4815 38.0784C15.2015 38.3724 14.7535 38.7504 14.1095 39.1984C12.9475 39.9964 12.1775 40.6124 11.8135 41.0324C11.1415 41.7884 10.8195 42.6704 10.8195 43.6924H17.7915V42.2504H12.8635C13.0875 41.7464 13.7035 41.1584 14.7255 40.4864C15.7055 39.8284 16.4055 39.2964 16.7975 38.8764C17.4415 38.1624 17.7775 37.3784 17.7775 36.5104C17.7775 35.6144 17.4695 34.9004 16.8535 34.3404C16.2235 33.7804 15.4255 33.5004 14.4595 33.5004ZM22.854 33.5004C21.776 33.5004 20.908 33.8644 20.25 34.5924C19.606 35.2784 19.284 36.1744 19.27 37.2944H20.908C20.936 36.5104 21.104 35.9084 21.412 35.5164C21.72 35.0964 22.182 34.8864 22.798 34.8864C23.372 34.8864 23.806 35.0124 24.1 35.2784C24.38 35.5444 24.534 35.9504 24.534 36.4964C24.534 37.0564 24.31 37.5884 23.876 38.0784C23.596 38.3724 23.148 38.7504 22.504 39.1984C21.342 39.9964 20.572 40.6124 20.208 41.0324C19.536 41.7884 19.214 42.6704 19.214 43.6924H26.186V42.2504H21.258C21.482 41.7464 22.098 41.1584 23.12 40.4864C24.1 39.8284 24.8 39.2964 25.192 38.8764C25.836 38.1624 26.172 37.3784 26.172 36.5104C26.172 35.6144 25.864 34.9004 25.248 34.3404C24.618 33.7804 23.82 33.5004 22.854 33.5004Z" fill="#3B3558"/>
<path d="M14.7876 128.808C13.7096 128.808 12.8416 129.172 12.1836 129.9C11.5396 130.586 11.2176 131.482 11.2036 132.602H12.8416C12.8696 131.818 13.0376 131.216 13.3456 130.824C13.6536 130.404 14.1156 130.194 14.7316 130.194C15.3056 130.194 15.7396 130.32 16.0336 130.586C16.3136 130.852 16.4676 131.258 16.4676 131.804C16.4676 132.364 16.2436 132.896 15.8096 133.386C15.5296 133.68 15.0816 134.058 14.4376 134.506C13.2756 135.304 12.5056 135.92 12.1416 136.34C11.4696 137.096 11.1476 137.978 11.1476 139H18.1196V137.558H13.1916C13.4156 137.054 14.0316 136.466 15.0536 135.794C16.0336 135.136 16.7336 134.604 17.1256 134.184C17.7696 133.47 18.1056 132.686 18.1056 131.818C18.1056 130.922 17.7976 130.208 17.1816 129.648C16.5516 129.088 15.7536 128.808 14.7876 128.808ZM19.2481 129.004V130.488H24.3581L20.7741 139H22.5101L26.0101 130.32V129.004H19.2481Z" fill="#3B3558"/>
<path d="M14.4595 152.808C13.3815 152.808 12.5135 153.172 11.8555 153.9C11.2115 154.586 10.8895 155.482 10.8755 156.602H12.5135C12.5415 155.818 12.7095 155.216 13.0175 154.824C13.3255 154.404 13.7875 154.194 14.4035 154.194C14.9775 154.194 15.4115 154.32 15.7055 154.586C15.9855 154.852 16.1395 155.258 16.1395 155.804C16.1395 156.364 15.9155 156.896 15.4815 157.386C15.2015 157.68 14.7535 158.058 14.1095 158.506C12.9475 159.304 12.1775 159.92 11.8135 160.34C11.1415 161.096 10.8195 161.978 10.8195 163H17.7915V161.558H12.8635C13.0875 161.054 13.7035 160.466 14.7255 159.794C15.7055 159.136 16.4055 158.604 16.7975 158.184C17.4415 157.47 17.7775 156.686 17.7775 155.818C17.7775 154.922 17.4695 154.208 16.8535 153.648C16.2235 153.088 15.4255 152.808 14.4595 152.808ZM22.7 152.808C21.622 152.808 20.768 153.088 20.138 153.662C19.564 154.166 19.284 154.796 19.284 155.552C19.284 156.056 19.396 156.49 19.62 156.84C19.858 157.204 20.222 157.498 20.726 157.694V157.722C20.25 157.848 19.858 158.128 19.522 158.562C19.13 159.038 18.948 159.584 18.948 160.2C18.948 161.096 19.27 161.81 19.928 162.37C20.572 162.916 21.496 163.196 22.7 163.196C23.89 163.196 24.814 162.916 25.472 162.37C26.116 161.81 26.452 161.096 26.452 160.2C26.452 159.584 26.256 159.038 25.878 158.562C25.542 158.128 25.136 157.848 24.674 157.722V157.694C25.164 157.498 25.528 157.204 25.78 156.84C26.004 156.49 26.116 156.056 26.116 155.552C26.116 154.796 25.822 154.166 25.262 153.662C24.618 153.088 23.764 152.808 22.7 152.808ZM22.7 154.11C23.288 154.11 23.75 154.264 24.114 154.586C24.422 154.866 24.576 155.202 24.576 155.608C24.576 156.07 24.45 156.434 24.198 156.7C23.89 157.022 23.386 157.19 22.7 157.19C22 157.19 21.51 157.022 21.202 156.7C20.95 156.434 20.824 156.07 20.824 155.608C20.824 155.202 20.978 154.866 21.286 154.586C21.636 154.264 22.112 154.11 22.7 154.11ZM22.7 158.408C23.4 158.408 23.932 158.576 24.31 158.926C24.646 159.234 24.828 159.668 24.828 160.2C24.828 160.704 24.646 161.096 24.296 161.404C23.904 161.712 23.372 161.88 22.7 161.88C22.014 161.88 21.496 161.726 21.132 161.418C20.754 161.11 20.572 160.704 20.572 160.2C20.572 159.668 20.74 159.234 21.104 158.912C21.468 158.576 22 158.408 22.7 158.408Z" fill="#3B3558"/>
<path d="M14.4035 176.808C13.4235 176.808 12.6115 177.074 11.9815 177.634C11.3095 178.194 10.9455 178.978 10.8615 179.986H12.4715C12.5275 179.384 12.7235 178.936 13.0595 178.642C13.3815 178.348 13.8295 178.208 14.4175 178.208C14.9915 178.208 15.4255 178.334 15.7195 178.586C15.9855 178.838 16.1255 179.202 16.1255 179.692C16.1255 180.182 15.9715 180.56 15.6775 180.812C15.3695 181.064 14.9215 181.19 14.3335 181.19H13.6335V182.422H14.3335C14.9775 182.422 15.4675 182.548 15.8035 182.828C16.1395 183.094 16.3215 183.514 16.3215 184.088C16.3215 184.564 16.1535 184.956 15.8315 185.278C15.4675 185.628 14.9635 185.81 14.3335 185.81C13.7595 185.81 13.2975 185.642 12.9475 185.32C12.5555 184.97 12.3595 184.466 12.3315 183.822H10.6655C10.7495 184.942 11.1415 185.81 11.8415 186.398C12.4715 186.93 13.3115 187.196 14.3475 187.196C15.4395 187.196 16.3215 186.888 16.9935 186.286C17.6375 185.698 17.9595 184.942 17.9595 184.018C17.9595 183.43 17.7915 182.94 17.4555 182.562C17.1475 182.198 16.6855 181.932 16.0975 181.75C17.2035 181.386 17.7635 180.658 17.7635 179.566C17.7635 178.698 17.4555 178.026 16.8535 177.536C16.2375 177.046 15.4115 176.808 14.4035 176.808ZM22.7 176.808C21.524 176.808 20.614 177.284 19.97 178.264C19.354 179.188 19.046 180.434 19.046 182.002C19.046 183.57 19.354 184.816 19.97 185.74C20.614 186.706 21.524 187.196 22.7 187.196C23.862 187.196 24.772 186.706 25.43 185.74C26.046 184.816 26.354 183.57 26.354 182.002C26.354 180.434 26.046 179.188 25.43 178.264C24.772 177.284 23.862 176.808 22.7 176.808ZM22.7 178.194C23.484 178.194 24.044 178.628 24.38 179.524C24.604 180.126 24.716 180.952 24.716 182.002C24.716 183.038 24.604 183.864 24.38 184.48C24.044 185.362 23.484 185.81 22.7 185.81C21.902 185.81 21.342 185.362 21.02 184.48C20.796 183.864 20.684 183.038 20.684 182.002C20.684 180.952 20.796 180.126 21.02 179.524C21.342 178.628 21.902 178.194 22.7 178.194Z" fill="#3B3558"/>
<defs>
<linearGradient id="paint0_linear_1813_11196" x1="17.9747" y1="195.994" x2="58.7739" y2="8.90026" gradientUnits="userSpaceOnUse">
<stop stop-color="#FBB1AD"/>
<stop offset="0.217378" stop-color="#F4EBA9"/>
<stop offset="0.489583" stop-color="#C4F2BF"/>
<stop offset="0.830056" stop-color="#C4F2BF"/>
<stop offset="0.995671" stop-color="#B0EEE8"/>
</linearGradient>
</defs>
</svg>
