<svg width="936" height="32" viewBox="0 0 936 32" fill="none" xmlns="http://www.w3.org/2000/svg">
<rect width="936" height="32" rx="8" fill="url(#paint0_linear_705_14183)"/>
<path d="M16.5027 10.808C15.3267 10.808 14.4167 11.284 13.7727 12.264C13.1567 13.188 12.8487 14.434 12.8487 16.002C12.8487 17.57 13.1567 18.816 13.7727 19.74C14.4167 20.706 15.3267 21.196 16.5027 21.196C17.6647 21.196 18.5747 20.706 19.2327 19.74C19.8487 18.816 20.1567 17.57 20.1567 16.002C20.1567 14.434 19.8487 13.188 19.2327 12.264C18.5747 11.284 17.6647 10.808 16.5027 10.808ZM16.5027 12.194C17.2867 12.194 17.8467 12.628 18.1827 13.524C18.4067 14.126 18.5187 14.952 18.5187 16.002C18.5187 17.038 18.4067 17.864 18.1827 18.48C17.8467 19.362 17.2867 19.81 16.5027 19.81C15.7047 19.81 15.1447 19.362 14.8227 18.48C14.5987 17.864 14.4867 17.038 14.4867 16.002C14.4867 14.952 14.5987 14.126 14.8227 13.524C15.1447 12.628 15.7047 12.194 16.5027 12.194Z" fill="#3B3558"/>
<path d="M545.608 10.808C544.53 10.808 543.676 11.088 543.046 11.662C542.472 12.166 542.192 12.796 542.192 13.552C542.192 14.056 542.304 14.49 542.528 14.84C542.766 15.204 543.13 15.498 543.634 15.694V15.722C543.158 15.848 542.766 16.128 542.43 16.562C542.038 17.038 541.856 17.584 541.856 18.2C541.856 19.096 542.178 19.81 542.836 20.37C543.48 20.916 544.404 21.196 545.608 21.196C546.798 21.196 547.722 20.916 548.38 20.37C549.024 19.81 549.36 19.096 549.36 18.2C549.36 17.584 549.164 17.038 548.786 16.562C548.45 16.128 548.044 15.848 547.582 15.722V15.694C548.072 15.498 548.436 15.204 548.688 14.84C548.912 14.49 549.024 14.056 549.024 13.552C549.024 12.796 548.73 12.166 548.17 11.662C547.526 11.088 546.672 10.808 545.608 10.808ZM545.608 12.11C546.196 12.11 546.658 12.264 547.022 12.586C547.33 12.866 547.484 13.202 547.484 13.608C547.484 14.07 547.358 14.434 547.106 14.7C546.798 15.022 546.294 15.19 545.608 15.19C544.908 15.19 544.418 15.022 544.11 14.7C543.858 14.434 543.732 14.07 543.732 13.608C543.732 13.202 543.886 12.866 544.194 12.586C544.544 12.264 545.02 12.11 545.608 12.11ZM545.608 16.408C546.308 16.408 546.84 16.576 547.218 16.926C547.554 17.234 547.736 17.668 547.736 18.2C547.736 18.704 547.554 19.096 547.204 19.404C546.812 19.712 546.28 19.88 545.608 19.88C544.922 19.88 544.404 19.726 544.04 19.418C543.662 19.11 543.48 18.704 543.48 18.2C543.48 17.668 543.648 17.234 544.012 16.912C544.376 16.576 544.908 16.408 545.608 16.408ZM554.003 10.808C552.827 10.808 551.917 11.284 551.273 12.264C550.657 13.188 550.349 14.434 550.349 16.002C550.349 17.57 550.657 18.816 551.273 19.74C551.917 20.706 552.827 21.196 554.003 21.196C555.165 21.196 556.075 20.706 556.733 19.74C557.349 18.816 557.657 17.57 557.657 16.002C557.657 14.434 557.349 13.188 556.733 12.264C556.075 11.284 555.165 10.808 554.003 10.808ZM554.003 12.194C554.787 12.194 555.347 12.628 555.683 13.524C555.907 14.126 556.019 14.952 556.019 16.002C556.019 17.038 555.907 17.864 555.683 18.48C555.347 19.362 554.787 19.81 554.003 19.81C553.205 19.81 552.645 19.362 552.323 18.48C552.099 17.864 551.987 17.038 551.987 16.002C551.987 14.952 552.099 14.126 552.323 13.524C552.645 12.628 553.205 12.194 554.003 12.194ZM562.397 10.808C561.221 10.808 560.311 11.284 559.667 12.264C559.051 13.188 558.743 14.434 558.743 16.002C558.743 17.57 559.051 18.816 559.667 19.74C560.311 20.706 561.221 21.196 562.397 21.196C563.559 21.196 564.469 20.706 565.127 19.74C565.743 18.816 566.051 17.57 566.051 16.002C566.051 14.434 565.743 13.188 565.127 12.264C564.469 11.284 563.559 10.808 562.397 10.808ZM562.397 12.194C563.181 12.194 563.741 12.628 564.077 13.524C564.301 14.126 564.413 14.952 564.413 16.002C564.413 17.038 564.301 17.864 564.077 18.48C563.741 19.362 563.181 19.81 562.397 19.81C561.599 19.81 561.039 19.362 560.717 18.48C560.493 17.864 560.381 17.038 560.381 16.002C560.381 14.952 560.493 14.126 560.717 13.524C561.039 12.628 561.599 12.194 562.397 12.194Z" fill="#3B3558"/>
<path d="M632.285 11.004C631.949 11.354 631.529 11.676 631.025 11.984C630.521 12.264 630.045 12.46 629.597 12.572V14.196C630.521 13.93 631.277 13.524 631.879 12.978V21H633.517V11.004H632.285ZM638.979 10.808C637.803 10.808 636.893 11.284 636.249 12.264C635.633 13.188 635.325 14.434 635.325 16.002C635.325 17.57 635.633 18.816 636.249 19.74C636.893 20.706 637.803 21.196 638.979 21.196C640.141 21.196 641.051 20.706 641.709 19.74C642.325 18.816 642.633 17.57 642.633 16.002C642.633 14.434 642.325 13.188 641.709 12.264C641.051 11.284 640.141 10.808 638.979 10.808ZM638.979 12.194C639.763 12.194 640.323 12.628 640.659 13.524C640.883 14.126 640.995 14.952 640.995 16.002C640.995 17.038 640.883 17.864 640.659 18.48C640.323 19.362 639.763 19.81 638.979 19.81C638.181 19.81 637.621 19.362 637.299 18.48C637.075 17.864 636.963 17.038 636.963 16.002C636.963 14.952 637.075 14.126 637.299 13.524C637.621 12.628 638.181 12.194 638.979 12.194ZM647.374 10.808C646.198 10.808 645.288 11.284 644.644 12.264C644.028 13.188 643.72 14.434 643.72 16.002C643.72 17.57 644.028 18.816 644.644 19.74C645.288 20.706 646.198 21.196 647.374 21.196C648.536 21.196 649.446 20.706 650.104 19.74C650.72 18.816 651.028 17.57 651.028 16.002C651.028 14.434 650.72 13.188 650.104 12.264C649.446 11.284 648.536 10.808 647.374 10.808ZM647.374 12.194C648.158 12.194 648.718 12.628 649.054 13.524C649.278 14.126 649.39 14.952 649.39 16.002C649.39 17.038 649.278 17.864 649.054 18.48C648.718 19.362 648.158 19.81 647.374 19.81C646.576 19.81 646.016 19.362 645.694 18.48C645.47 17.864 645.358 17.038 645.358 16.002C645.358 14.952 645.47 14.126 645.694 13.524C646.016 12.628 646.576 12.194 647.374 12.194ZM655.768 10.808C654.592 10.808 653.682 11.284 653.038 12.264C652.422 13.188 652.114 14.434 652.114 16.002C652.114 17.57 652.422 18.816 653.038 19.74C653.682 20.706 654.592 21.196 655.768 21.196C656.93 21.196 657.84 20.706 658.498 19.74C659.114 18.816 659.422 17.57 659.422 16.002C659.422 14.434 659.114 13.188 658.498 12.264C657.84 11.284 656.93 10.808 655.768 10.808ZM655.768 12.194C656.552 12.194 657.112 12.628 657.448 13.524C657.672 14.126 657.784 14.952 657.784 16.002C657.784 17.038 657.672 17.864 657.448 18.48C657.112 19.362 656.552 19.81 655.768 19.81C654.97 19.81 654.41 19.362 654.088 18.48C653.864 17.864 653.752 17.038 653.752 16.002C653.752 14.952 653.864 14.126 654.088 13.524C654.41 12.628 654.97 12.194 655.768 12.194Z" fill="#3B3558"/>
<path d="M894.565 10.808C893.487 10.808 892.619 11.172 891.961 11.9C891.317 12.586 890.995 13.482 890.981 14.602H892.619C892.647 13.818 892.815 13.216 893.123 12.824C893.431 12.404 893.893 12.194 894.509 12.194C895.083 12.194 895.517 12.32 895.811 12.586C896.091 12.852 896.245 13.258 896.245 13.804C896.245 14.364 896.021 14.896 895.587 15.386C895.307 15.68 894.859 16.058 894.215 16.506C893.053 17.304 892.283 17.92 891.919 18.34C891.247 19.096 890.925 19.978 890.925 21H897.897V19.558H892.969C893.193 19.054 893.809 18.466 894.831 17.794C895.811 17.136 896.511 16.604 896.903 16.184C897.547 15.47 897.883 14.686 897.883 13.818C897.883 12.922 897.575 12.208 896.959 11.648C896.329 11.088 895.531 10.808 894.565 10.808ZM899.893 11.004L899.347 16.632H900.873C901.069 16.282 901.335 16.03 901.685 15.862C901.993 15.708 902.371 15.638 902.805 15.638C903.449 15.638 903.953 15.82 904.289 16.212C904.625 16.59 904.807 17.122 904.807 17.794C904.807 18.41 904.597 18.9 904.205 19.264C903.799 19.628 903.295 19.81 902.707 19.81C902.161 19.81 901.727 19.684 901.419 19.46C901.055 19.194 900.845 18.788 900.775 18.242H899.165C899.235 19.166 899.627 19.908 900.355 20.454C900.999 20.944 901.783 21.196 902.693 21.196C903.687 21.196 904.541 20.902 905.269 20.314C906.053 19.656 906.445 18.816 906.445 17.78C906.445 16.702 906.137 15.848 905.549 15.232C904.961 14.616 904.191 14.308 903.253 14.308C902.805 14.308 902.399 14.378 902.035 14.518C901.629 14.658 901.279 14.882 900.971 15.19H900.929L901.209 12.446L905.983 12.446V11.004L899.893 11.004ZM911.2 10.808C910.024 10.808 909.114 11.284 908.47 12.264C907.854 13.188 907.546 14.434 907.546 16.002C907.546 17.57 907.854 18.816 908.47 19.74C909.114 20.706 910.024 21.196 911.2 21.196C912.362 21.196 913.272 20.706 913.93 19.74C914.546 18.816 914.854 17.57 914.854 16.002C914.854 14.434 914.546 13.188 913.93 12.264C913.272 11.284 912.362 10.808 911.2 10.808ZM911.2 12.194C911.984 12.194 912.544 12.628 912.88 13.524C913.104 14.126 913.216 14.952 913.216 16.002C913.216 17.038 913.104 17.864 912.88 18.48C912.544 19.362 911.984 19.81 911.2 19.81C910.402 19.81 909.842 19.362 909.52 18.48C909.296 17.864 909.184 17.038 909.184 16.002C909.184 14.952 909.296 14.126 909.52 13.524C909.842 12.628 910.402 12.194 911.2 12.194ZM919.595 10.808C918.419 10.808 917.509 11.284 916.865 12.264C916.249 13.188 915.941 14.434 915.941 16.002C915.941 17.57 916.249 18.816 916.865 19.74C917.509 20.706 918.419 21.196 919.595 21.196C920.757 21.196 921.667 20.706 922.325 19.74C922.941 18.816 923.249 17.57 923.249 16.002C923.249 14.434 922.941 13.188 922.325 12.264C921.667 11.284 920.757 10.808 919.595 10.808ZM919.595 12.194C920.379 12.194 920.939 12.628 921.275 13.524C921.499 14.126 921.611 14.952 921.611 16.002C921.611 17.038 921.499 17.864 921.275 18.48C920.939 19.362 920.379 19.81 919.595 19.81C918.797 19.81 918.237 19.362 917.915 18.48C917.691 17.864 917.579 17.038 917.579 16.002C917.579 14.952 917.691 14.126 917.915 13.524C918.237 12.628 918.797 12.194 919.595 12.194Z" fill="#3B3558"/>
<defs>
<linearGradient id="paint0_linear_705_14183" x1="936" y1="16.0061" x2="0.766511" y2="-13.0339" gradientUnits="userSpaceOnUse">
<stop stop-color="#FBB1AD"/>
<stop offset="0.309141" stop-color="#F4EBA9"/>
<stop offset="0.408233" stop-color="#C4F2BF"/>
</linearGradient>
</defs>
</svg>
