<svg width="936" height="32" viewBox="0 0 936 32" fill="none" xmlns="http://www.w3.org/2000/svg">
<rect width="936" height="32" rx="8" fill="url(#paint0_linear_705_14203)"/>
<path d="M16.5027 10.808C15.3267 10.808 14.4167 11.284 13.7727 12.264C13.1567 13.188 12.8487 14.434 12.8487 16.002C12.8487 17.57 13.1567 18.816 13.7727 19.74C14.4167 20.706 15.3267 21.196 16.5027 21.196C17.6647 21.196 18.5747 20.706 19.2327 19.74C19.8487 18.816 20.1567 17.57 20.1567 16.002C20.1567 14.434 19.8487 13.188 19.2327 12.264C18.5747 11.284 17.6647 10.808 16.5027 10.808ZM16.5027 12.194C17.2867 12.194 17.8467 12.628 18.1827 13.524C18.4067 14.126 18.5187 14.952 18.5187 16.002C18.5187 17.038 18.4067 17.864 18.1827 18.48C17.8467 19.362 17.2867 19.81 16.5027 19.81C15.7047 19.81 15.1447 19.362 14.8227 18.48C14.5987 17.864 14.4867 17.038 14.4867 16.002C14.4867 14.952 14.5987 14.126 14.8227 13.524C15.1447 12.628 15.7047 12.194 16.5027 12.194Z" fill="#3B3558"/>
<path d="M366.68 10.808C365.504 10.808 364.594 11.284 363.95 12.264C363.334 13.188 363.026 14.434 363.026 16.002C363.026 17.57 363.334 18.816 363.95 19.74C364.594 20.706 365.504 21.196 366.68 21.196C367.842 21.196 368.752 20.706 369.41 19.74C370.026 18.816 370.334 17.57 370.334 16.002C370.334 14.434 370.026 13.188 369.41 12.264C368.752 11.284 367.842 10.808 366.68 10.808ZM366.68 12.194C367.464 12.194 368.024 12.628 368.36 13.524C368.584 14.126 368.696 14.952 368.696 16.002C368.696 17.038 368.584 17.864 368.36 18.48C368.024 19.362 367.464 19.81 366.68 19.81C365.882 19.81 365.322 19.362 365 18.48C364.776 17.864 364.664 17.038 364.664 16.002C364.664 14.952 364.776 14.126 365 13.524C365.322 12.628 365.882 12.194 366.68 12.194ZM372.793 18.886C372.485 18.886 372.219 18.984 372.023 19.208C371.799 19.418 371.701 19.684 371.701 19.992C371.701 20.3 371.799 20.552 372.023 20.776C372.219 20.972 372.485 21.084 372.793 21.084C373.101 21.084 373.353 20.972 373.577 20.776C373.787 20.552 373.899 20.3 373.899 19.992C373.899 19.684 373.787 19.418 373.577 19.208C373.353 18.984 373.101 18.886 372.793 18.886ZM378.93 10.808C377.754 10.808 376.844 11.284 376.2 12.264C375.584 13.188 375.276 14.434 375.276 16.002C375.276 17.57 375.584 18.816 376.2 19.74C376.844 20.706 377.754 21.196 378.93 21.196C380.092 21.196 381.002 20.706 381.66 19.74C382.276 18.816 382.584 17.57 382.584 16.002C382.584 14.434 382.276 13.188 381.66 12.264C381.002 11.284 380.092 10.808 378.93 10.808ZM378.93 12.194C379.714 12.194 380.274 12.628 380.61 13.524C380.834 14.126 380.946 14.952 380.946 16.002C380.946 17.038 380.834 17.864 380.61 18.48C380.274 19.362 379.714 19.81 378.93 19.81C378.132 19.81 377.572 19.362 377.25 18.48C377.026 17.864 376.914 17.038 376.914 16.002C376.914 14.952 377.026 14.126 377.25 13.524C377.572 12.628 378.132 12.194 378.93 12.194ZM387.325 10.808C386.247 10.808 385.393 11.088 384.763 11.662C384.189 12.166 383.909 12.796 383.909 13.552C383.909 14.056 384.021 14.49 384.245 14.84C384.483 15.204 384.847 15.498 385.351 15.694V15.722C384.875 15.848 384.483 16.128 384.147 16.562C383.755 17.038 383.573 17.584 383.573 18.2C383.573 19.096 383.895 19.81 384.553 20.37C385.197 20.916 386.121 21.196 387.325 21.196C388.515 21.196 389.439 20.916 390.097 20.37C390.741 19.81 391.077 19.096 391.077 18.2C391.077 17.584 390.881 17.038 390.503 16.562C390.167 16.128 389.761 15.848 389.299 15.722V15.694C389.789 15.498 390.153 15.204 390.405 14.84C390.629 14.49 390.741 14.056 390.741 13.552C390.741 12.796 390.447 12.166 389.887 11.662C389.243 11.088 388.389 10.808 387.325 10.808ZM387.325 12.11C387.913 12.11 388.375 12.264 388.739 12.586C389.047 12.866 389.201 13.202 389.201 13.608C389.201 14.07 389.075 14.434 388.823 14.7C388.515 15.022 388.011 15.19 387.325 15.19C386.625 15.19 386.135 15.022 385.827 14.7C385.575 14.434 385.449 14.07 385.449 13.608C385.449 13.202 385.603 12.866 385.911 12.586C386.261 12.264 386.737 12.11 387.325 12.11ZM387.325 16.408C388.025 16.408 388.557 16.576 388.935 16.926C389.271 17.234 389.453 17.668 389.453 18.2C389.453 18.704 389.271 19.096 388.921 19.404C388.529 19.712 387.997 19.88 387.325 19.88C386.639 19.88 386.121 19.726 385.757 19.418C385.379 19.11 385.197 18.704 385.197 18.2C385.197 17.668 385.365 17.234 385.729 16.912C386.093 16.576 386.625 16.408 387.325 16.408Z" fill="#3B3558"/>
<path d="M456.507 10.808C455.331 10.808 454.421 11.284 453.777 12.264C453.161 13.188 452.853 14.434 452.853 16.002C452.853 17.57 453.161 18.816 453.777 19.74C454.421 20.706 455.331 21.196 456.507 21.196C457.669 21.196 458.579 20.706 459.237 19.74C459.853 18.816 460.161 17.57 460.161 16.002C460.161 14.434 459.853 13.188 459.237 12.264C458.579 11.284 457.669 10.808 456.507 10.808ZM456.507 12.194C457.291 12.194 457.851 12.628 458.187 13.524C458.411 14.126 458.523 14.952 458.523 16.002C458.523 17.038 458.411 17.864 458.187 18.48C457.851 19.362 457.291 19.81 456.507 19.81C455.709 19.81 455.149 19.362 454.827 18.48C454.603 17.864 454.491 17.038 454.491 16.002C454.491 14.952 454.603 14.126 454.827 13.524C455.149 12.628 455.709 12.194 456.507 12.194ZM462.619 18.886C462.311 18.886 462.045 18.984 461.849 19.208C461.625 19.418 461.527 19.684 461.527 19.992C461.527 20.3 461.625 20.552 461.849 20.776C462.045 20.972 462.311 21.084 462.619 21.084C462.927 21.084 463.179 20.972 463.403 20.776C463.613 20.552 463.725 20.3 463.725 19.992C463.725 19.684 463.613 19.418 463.403 19.208C463.179 18.984 462.927 18.886 462.619 18.886ZM467.805 11.004C467.469 11.354 467.049 11.676 466.545 11.984C466.041 12.264 465.565 12.46 465.117 12.572V14.196C466.041 13.93 466.797 13.524 467.399 12.978V21L469.037 21V11.004H467.805ZM474.499 10.808C473.323 10.808 472.413 11.284 471.769 12.264C471.153 13.188 470.845 14.434 470.845 16.002C470.845 17.57 471.153 18.816 471.769 19.74C472.413 20.706 473.323 21.196 474.499 21.196C475.661 21.196 476.571 20.706 477.229 19.74C477.845 18.816 478.153 17.57 478.153 16.002C478.153 14.434 477.845 13.188 477.229 12.264C476.571 11.284 475.661 10.808 474.499 10.808ZM474.499 12.194C475.283 12.194 475.843 12.628 476.179 13.524C476.403 14.126 476.515 14.952 476.515 16.002C476.515 17.038 476.403 17.864 476.179 18.48C475.843 19.362 475.283 19.81 474.499 19.81C473.701 19.81 473.141 19.362 472.819 18.48C472.595 17.864 472.483 17.038 472.483 16.002C472.483 14.952 472.595 14.126 472.819 13.524C473.141 12.628 473.701 12.194 474.499 12.194Z" fill="#3B3558"/>
<path d="M896.68 10.808C895.504 10.808 894.594 11.284 893.95 12.264C893.334 13.188 893.026 14.434 893.026 16.002C893.026 17.57 893.334 18.816 893.95 19.74C894.594 20.706 895.504 21.196 896.68 21.196C897.842 21.196 898.752 20.706 899.41 19.74C900.026 18.816 900.334 17.57 900.334 16.002C900.334 14.434 900.026 13.188 899.41 12.264C898.752 11.284 897.842 10.808 896.68 10.808ZM896.68 12.194C897.464 12.194 898.024 12.628 898.36 13.524C898.584 14.126 898.696 14.952 898.696 16.002C898.696 17.038 898.584 17.864 898.36 18.48C898.024 19.362 897.464 19.81 896.68 19.81C895.882 19.81 895.322 19.362 895 18.48C894.776 17.864 894.664 17.038 894.664 16.002C894.664 14.952 894.776 14.126 895 13.524C895.322 12.628 895.882 12.194 896.68 12.194ZM902.793 18.886C902.485 18.886 902.219 18.984 902.023 19.208C901.799 19.418 901.701 19.684 901.701 19.992C901.701 20.3 901.799 20.552 902.023 20.776C902.219 20.972 902.485 21.084 902.793 21.084C903.101 21.084 903.353 20.972 903.577 20.776C903.787 20.552 903.899 20.3 903.899 19.992C903.899 19.684 903.787 19.418 903.577 19.208C903.353 18.984 903.101 18.886 902.793 18.886ZM909.084 10.808C908.006 10.808 907.138 11.172 906.48 11.9C905.836 12.586 905.514 13.482 905.5 14.602H907.138C907.166 13.818 907.334 13.216 907.642 12.824C907.95 12.404 908.412 12.194 909.028 12.194C909.602 12.194 910.036 12.32 910.33 12.586C910.61 12.852 910.764 13.258 910.764 13.804C910.764 14.364 910.54 14.896 910.106 15.386C909.826 15.68 909.378 16.058 908.734 16.506C907.572 17.304 906.802 17.92 906.438 18.34C905.766 19.096 905.444 19.978 905.444 21L912.416 21V19.558L907.488 19.558C907.712 19.054 908.328 18.466 909.35 17.794C910.33 17.136 911.03 16.604 911.422 16.184C912.066 15.47 912.402 14.686 912.402 13.818C912.402 12.922 912.094 12.208 911.478 11.648C910.848 11.088 910.05 10.808 909.084 10.808ZM917.325 10.808C916.149 10.808 915.239 11.284 914.595 12.264C913.979 13.188 913.671 14.434 913.671 16.002C913.671 17.57 913.979 18.816 914.595 19.74C915.239 20.706 916.149 21.196 917.325 21.196C918.487 21.196 919.397 20.706 920.055 19.74C920.671 18.816 920.979 17.57 920.979 16.002C920.979 14.434 920.671 13.188 920.055 12.264C919.397 11.284 918.487 10.808 917.325 10.808ZM917.325 12.194C918.109 12.194 918.669 12.628 919.005 13.524C919.229 14.126 919.341 14.952 919.341 16.002C919.341 17.038 919.229 17.864 919.005 18.48C918.669 19.362 918.109 19.81 917.325 19.81C916.527 19.81 915.967 19.362 915.645 18.48C915.421 17.864 915.309 17.038 915.309 16.002C915.309 14.952 915.421 14.126 915.645 13.524C915.967 12.628 916.527 12.194 917.325 12.194Z" fill="#3B3558"/>
<defs>
<linearGradient id="paint0_linear_705_14203" x1="936" y1="16.0061" x2="0.766511" y2="-13.0339" gradientUnits="userSpaceOnUse">
<stop stop-color="#FBB1AD"/>
<stop offset="0.501504" stop-color="#F4EBA9"/>
<stop offset="0.600445" stop-color="#C4F2BF"/>
</linearGradient>
</defs>
</svg>
