<svg width="936" height="32" viewBox="0 0 936 32" fill="none" xmlns="http://www.w3.org/2000/svg">
<rect width="936" height="32" rx="8" fill="url(#paint0_linear_705_14223)"/>
<path d="M16.5027 10.808C15.3267 10.808 14.4167 11.284 13.7727 12.264C13.1567 13.188 12.8487 14.434 12.8487 16.002C12.8487 17.57 13.1567 18.816 13.7727 19.74C14.4167 20.706 15.3267 21.196 16.5027 21.196C17.6647 21.196 18.5747 20.706 19.2327 19.74C19.8487 18.816 20.1567 17.57 20.1567 16.002C20.1567 14.434 19.8487 13.188 19.2327 12.264C18.5747 11.284 17.6647 10.808 16.5027 10.808ZM16.5027 12.194C17.2867 12.194 17.8467 12.628 18.1827 13.524C18.4067 14.126 18.5187 14.952 18.5187 16.002C18.5187 17.038 18.4067 17.864 18.1827 18.48C17.8467 19.362 17.2867 19.81 16.5027 19.81C15.7047 19.81 15.1447 19.362 14.8227 18.48C14.5987 17.864 14.4867 17.038 14.4867 16.002C14.4867 14.952 14.5987 14.126 14.8227 13.524C15.1447 12.628 15.7047 12.194 16.5027 12.194Z" fill="#3B3558"/>
<path d="M144.403 10.808C143.423 10.808 142.611 11.074 141.981 11.634C141.309 12.194 140.945 12.978 140.861 13.986H142.471C142.527 13.384 142.723 12.936 143.059 12.642C143.381 12.348 143.829 12.208 144.417 12.208C144.991 12.208 145.425 12.334 145.719 12.586C145.985 12.838 146.125 13.202 146.125 13.692C146.125 14.182 145.971 14.56 145.677 14.812C145.369 15.064 144.921 15.19 144.333 15.19H143.633V16.422H144.333C144.977 16.422 145.467 16.548 145.803 16.828C146.139 17.094 146.321 17.514 146.321 18.088C146.321 18.564 146.153 18.956 145.831 19.278C145.467 19.628 144.963 19.81 144.333 19.81C143.759 19.81 143.297 19.642 142.947 19.32C142.555 18.97 142.359 18.466 142.331 17.822H140.665C140.749 18.942 141.141 19.81 141.841 20.398C142.471 20.93 143.311 21.196 144.347 21.196C145.439 21.196 146.321 20.888 146.993 20.286C147.637 19.698 147.959 18.942 147.959 18.018C147.959 17.43 147.791 16.94 147.455 16.562C147.147 16.198 146.685 15.932 146.097 15.75C147.203 15.386 147.763 14.658 147.763 13.566C147.763 12.698 147.455 12.026 146.853 11.536C146.237 11.046 145.411 10.808 144.403 10.808ZM149.788 11.004L149.242 16.632H150.768C150.964 16.282 151.23 16.03 151.58 15.862C151.888 15.708 152.266 15.638 152.7 15.638C153.344 15.638 153.848 15.82 154.184 16.212C154.52 16.59 154.702 17.122 154.702 17.794C154.702 18.41 154.492 18.9 154.1 19.264C153.694 19.628 153.19 19.81 152.602 19.81C152.056 19.81 151.622 19.684 151.314 19.46C150.95 19.194 150.74 18.788 150.67 18.242H149.06C149.13 19.166 149.522 19.908 150.25 20.454C150.894 20.944 151.678 21.196 152.588 21.196C153.582 21.196 154.436 20.902 155.164 20.314C155.948 19.656 156.34 18.816 156.34 17.78C156.34 16.702 156.032 15.848 155.444 15.232C154.856 14.616 154.086 14.308 153.148 14.308C152.7 14.308 152.294 14.378 151.93 14.518C151.524 14.658 151.174 14.882 150.866 15.19H150.824L151.104 12.446L155.878 12.446V11.004L149.788 11.004Z" fill="#3B3558"/>
<path d="M276.854 11.004V12.488H281.964L278.38 21H280.116L283.616 12.32V11.004H276.854ZM285.46 11.004L284.914 16.632H286.44C286.636 16.282 286.902 16.03 287.252 15.862C287.56 15.708 287.938 15.638 288.372 15.638C289.016 15.638 289.52 15.82 289.856 16.212C290.192 16.59 290.374 17.122 290.374 17.794C290.374 18.41 290.164 18.9 289.772 19.264C289.366 19.628 288.862 19.81 288.274 19.81C287.728 19.81 287.294 19.684 286.986 19.46C286.622 19.194 286.412 18.788 286.342 18.242H284.732C284.802 19.166 285.194 19.908 285.922 20.454C286.566 20.944 287.35 21.196 288.26 21.196C289.254 21.196 290.108 20.902 290.836 20.314C291.62 19.656 292.012 18.816 292.012 17.78C292.012 16.702 291.704 15.848 291.116 15.232C290.528 14.616 289.758 14.308 288.82 14.308C288.372 14.308 287.966 14.378 287.602 14.518C287.196 14.658 286.846 14.882 286.538 15.19H286.496L286.776 12.446L291.55 12.446V11.004L285.46 11.004Z" fill="#3B3558"/>
<path d="M546.482 11.004C546.146 11.354 545.726 11.676 545.222 11.984C544.718 12.264 544.242 12.46 543.794 12.572V14.196C544.718 13.93 545.474 13.524 546.076 12.978V21H547.714V11.004H546.482ZM550.265 11.004L549.719 16.632H551.245C551.441 16.282 551.707 16.03 552.057 15.862C552.365 15.708 552.743 15.638 553.177 15.638C553.821 15.638 554.325 15.82 554.661 16.212C554.997 16.59 555.179 17.122 555.179 17.794C555.179 18.41 554.969 18.9 554.577 19.264C554.171 19.628 553.667 19.81 553.079 19.81C552.533 19.81 552.099 19.684 551.791 19.46C551.427 19.194 551.217 18.788 551.147 18.242H549.537C549.607 19.166 549.999 19.908 550.727 20.454C551.371 20.944 552.155 21.196 553.065 21.196C554.059 21.196 554.913 20.902 555.641 20.314C556.425 19.656 556.817 18.816 556.817 17.78C556.817 16.702 556.509 15.848 555.921 15.232C555.333 14.616 554.563 14.308 553.625 14.308C553.177 14.308 552.771 14.378 552.407 14.518C552.001 14.658 551.651 14.882 551.343 15.19H551.301L551.581 12.446H556.355V11.004L550.265 11.004ZM561.571 10.808C560.395 10.808 559.485 11.284 558.841 12.264C558.225 13.188 557.917 14.434 557.917 16.002C557.917 17.57 558.225 18.816 558.841 19.74C559.485 20.706 560.395 21.196 561.571 21.196C562.733 21.196 563.643 20.706 564.301 19.74C564.917 18.816 565.225 17.57 565.225 16.002C565.225 14.434 564.917 13.188 564.301 12.264C563.643 11.284 562.733 10.808 561.571 10.808ZM561.571 12.194C562.355 12.194 562.915 12.628 563.251 13.524C563.475 14.126 563.587 14.952 563.587 16.002C563.587 17.038 563.475 17.864 563.251 18.48C562.915 19.362 562.355 19.81 561.571 19.81C560.773 19.81 560.213 19.362 559.891 18.48C559.667 17.864 559.555 17.038 559.555 16.002C559.555 14.952 559.667 14.126 559.891 13.524C560.213 12.628 560.773 12.194 561.571 12.194Z" fill="#3B3558"/>
<path d="M898.762 10.808C897.684 10.808 896.816 11.172 896.158 11.9C895.514 12.586 895.192 13.482 895.178 14.602H896.816C896.844 13.818 897.012 13.216 897.32 12.824C897.628 12.404 898.09 12.194 898.706 12.194C899.28 12.194 899.714 12.32 900.008 12.586C900.288 12.852 900.442 13.258 900.442 13.804C900.442 14.364 900.218 14.896 899.784 15.386C899.504 15.68 899.056 16.058 898.412 16.506C897.25 17.304 896.48 17.92 896.116 18.34C895.444 19.096 895.122 19.978 895.122 21H902.094V19.558H897.166C897.39 19.054 898.006 18.466 899.028 17.794C900.008 17.136 900.708 16.604 901.1 16.184C901.744 15.47 902.08 14.686 902.08 13.818C902.08 12.922 901.772 12.208 901.156 11.648C900.526 11.088 899.728 10.808 898.762 10.808ZM904.091 11.004L903.545 16.632H905.071C905.267 16.282 905.533 16.03 905.883 15.862C906.191 15.708 906.569 15.638 907.003 15.638C907.647 15.638 908.151 15.82 908.487 16.212C908.823 16.59 909.005 17.122 909.005 17.794C909.005 18.41 908.795 18.9 908.403 19.264C907.997 19.628 907.493 19.81 906.905 19.81C906.359 19.81 905.925 19.684 905.617 19.46C905.253 19.194 905.043 18.788 904.973 18.242H903.363C903.433 19.166 903.825 19.908 904.553 20.454C905.197 20.944 905.981 21.196 906.891 21.196C907.885 21.196 908.739 20.902 909.467 20.314C910.251 19.656 910.643 18.816 910.643 17.78C910.643 16.702 910.335 15.848 909.747 15.232C909.159 14.616 908.389 14.308 907.451 14.308C907.003 14.308 906.597 14.378 906.233 14.518C905.827 14.658 905.477 14.882 905.169 15.19H905.127L905.407 12.446L910.181 12.446V11.004L904.091 11.004ZM915.397 10.808C914.221 10.808 913.311 11.284 912.667 12.264C912.051 13.188 911.743 14.434 911.743 16.002C911.743 17.57 912.051 18.816 912.667 19.74C913.311 20.706 914.221 21.196 915.397 21.196C916.559 21.196 917.469 20.706 918.127 19.74C918.743 18.816 919.051 17.57 919.051 16.002C919.051 14.434 918.743 13.188 918.127 12.264C917.469 11.284 916.559 10.808 915.397 10.808ZM915.397 12.194C916.181 12.194 916.741 12.628 917.077 13.524C917.301 14.126 917.413 14.952 917.413 16.002C917.413 17.038 917.301 17.864 917.077 18.48C916.741 19.362 916.181 19.81 915.397 19.81C914.599 19.81 914.039 19.362 913.717 18.48C913.493 17.864 913.381 17.038 913.381 16.002C913.381 14.952 913.493 14.126 913.717 13.524C914.039 12.628 914.599 12.194 915.397 12.194Z" fill="#3B3558"/>
<defs>
<linearGradient id="paint0_linear_705_14223" x1="936" y1="16.0061" x2="0.766511" y2="-13.0339" gradientUnits="userSpaceOnUse">
<stop offset="0.033746" stop-color="#FBB1AD"/>
<stop offset="0.402495" stop-color="#F4EBA9"/>
<stop offset="0.695742" stop-color="#F4EBA9"/>
<stop offset="0.841138" stop-color="#C4F2BF"/>
</linearGradient>
</defs>
</svg>
