<svg width="936" height="32" viewBox="0 0 936 32" fill="none" xmlns="http://www.w3.org/2000/svg">
<rect width="936" height="32" rx="8" fill="url(#paint0_linear_705_14163)"/>
<path d="M16.5027 10.808C15.3267 10.808 14.4167 11.284 13.7727 12.264C13.1567 13.188 12.8487 14.434 12.8487 16.002C12.8487 17.57 13.1567 18.816 13.7727 19.74C14.4167 20.706 15.3267 21.196 16.5027 21.196C17.6647 21.196 18.5747 20.706 19.2327 19.74C19.8487 18.816 20.1567 17.57 20.1567 16.002C20.1567 14.434 19.8487 13.188 19.2327 12.264C18.5747 11.284 17.6647 10.808 16.5027 10.808ZM16.5027 12.194C17.2867 12.194 17.8467 12.628 18.1827 13.524C18.4067 14.126 18.5187 14.952 18.5187 16.002C18.5187 17.038 18.4067 17.864 18.1827 18.48C17.8467 19.362 17.2867 19.81 16.5027 19.81C15.7047 19.81 15.1447 19.362 14.8227 18.48C14.5987 17.864 14.4867 17.038 14.4867 16.002C14.4867 14.952 14.5987 14.126 14.8227 13.524C15.1447 12.628 15.7047 12.194 16.5027 12.194Z" fill="#3B3558"/>
<path d="M328.403 10.808C327.423 10.808 326.611 11.074 325.981 11.634C325.309 12.194 324.945 12.978 324.861 13.986H326.471C326.527 13.384 326.723 12.936 327.059 12.642C327.381 12.348 327.829 12.208 328.417 12.208C328.991 12.208 329.425 12.334 329.719 12.586C329.985 12.838 330.125 13.202 330.125 13.692C330.125 14.182 329.971 14.56 329.677 14.812C329.369 15.064 328.921 15.19 328.333 15.19H327.633V16.422H328.333C328.977 16.422 329.467 16.548 329.803 16.828C330.139 17.094 330.321 17.514 330.321 18.088C330.321 18.564 330.153 18.956 329.831 19.278C329.467 19.628 328.963 19.81 328.333 19.81C327.759 19.81 327.297 19.642 326.947 19.32C326.555 18.97 326.359 18.466 326.331 17.822H324.665C324.749 18.942 325.141 19.81 325.841 20.398C326.471 20.93 327.311 21.196 328.347 21.196C329.439 21.196 330.321 20.888 330.993 20.286C331.637 19.698 331.959 18.942 331.959 18.018C331.959 17.43 331.791 16.94 331.455 16.562C331.147 16.198 330.685 15.932 330.097 15.75C331.203 15.386 331.763 14.658 331.763 13.566C331.763 12.698 331.455 12.026 330.853 11.536C330.237 11.046 329.411 10.808 328.403 10.808ZM333.788 11.004L333.242 16.632H334.768C334.964 16.282 335.23 16.03 335.58 15.862C335.888 15.708 336.266 15.638 336.7 15.638C337.344 15.638 337.848 15.82 338.184 16.212C338.52 16.59 338.702 17.122 338.702 17.794C338.702 18.41 338.492 18.9 338.1 19.264C337.694 19.628 337.19 19.81 336.602 19.81C336.056 19.81 335.622 19.684 335.314 19.46C334.95 19.194 334.74 18.788 334.67 18.242H333.06C333.13 19.166 333.522 19.908 334.25 20.454C334.894 20.944 335.678 21.196 336.588 21.196C337.582 21.196 338.436 20.902 339.164 20.314C339.948 19.656 340.34 18.816 340.34 17.78C340.34 16.702 340.032 15.848 339.444 15.232C338.856 14.616 338.086 14.308 337.148 14.308C336.7 14.308 336.294 14.378 335.93 14.518C335.524 14.658 335.174 14.882 334.866 15.19H334.824L335.104 12.446L339.878 12.446V11.004L333.788 11.004Z" fill="#3B3558"/>
<path d="M280.403 10.808C279.423 10.808 278.611 11.074 277.981 11.634C277.309 12.194 276.945 12.978 276.861 13.986H278.471C278.527 13.384 278.723 12.936 279.059 12.642C279.381 12.348 279.829 12.208 280.417 12.208C280.991 12.208 281.425 12.334 281.719 12.586C281.985 12.838 282.125 13.202 282.125 13.692C282.125 14.182 281.971 14.56 281.677 14.812C281.369 15.064 280.921 15.19 280.333 15.19H279.633V16.422H280.333C280.977 16.422 281.467 16.548 281.803 16.828C282.139 17.094 282.321 17.514 282.321 18.088C282.321 18.564 282.153 18.956 281.831 19.278C281.467 19.628 280.963 19.81 280.333 19.81C279.759 19.81 279.297 19.642 278.947 19.32C278.555 18.97 278.359 18.466 278.331 17.822H276.665C276.749 18.942 277.141 19.81 277.841 20.398C278.471 20.93 279.311 21.196 280.347 21.196C281.439 21.196 282.321 20.888 282.993 20.286C283.637 19.698 283.959 18.942 283.959 18.018C283.959 17.43 283.791 16.94 283.455 16.562C283.147 16.198 282.685 15.932 282.097 15.75C283.203 15.386 283.763 14.658 283.763 13.566C283.763 12.698 283.455 12.026 282.853 11.536C282.237 11.046 281.411 10.808 280.403 10.808ZM288.7 10.808C287.524 10.808 286.614 11.284 285.97 12.264C285.354 13.188 285.046 14.434 285.046 16.002C285.046 17.57 285.354 18.816 285.97 19.74C286.614 20.706 287.524 21.196 288.7 21.196C289.862 21.196 290.772 20.706 291.43 19.74C292.046 18.816 292.354 17.57 292.354 16.002C292.354 14.434 292.046 13.188 291.43 12.264C290.772 11.284 289.862 10.808 288.7 10.808ZM288.7 12.194C289.484 12.194 290.044 12.628 290.38 13.524C290.604 14.126 290.716 14.952 290.716 16.002C290.716 17.038 290.604 17.864 290.38 18.48C290.044 19.362 289.484 19.81 288.7 19.81C287.902 19.81 287.342 19.362 287.02 18.48C286.796 17.864 286.684 17.038 286.684 16.002C286.684 14.952 286.796 14.126 287.02 13.524C287.342 12.628 287.902 12.194 288.7 12.194Z" fill="#3B3558"/>
<path d="M598.445 10.808C597.283 10.808 596.359 11.312 595.687 12.32C595.001 13.328 594.665 14.644 594.665 16.282C594.665 17.808 594.973 18.998 595.617 19.866C596.261 20.748 597.199 21.196 598.431 21.196C599.425 21.196 600.265 20.86 600.937 20.216C601.609 19.572 601.959 18.746 601.959 17.738C601.959 16.758 601.665 15.946 601.077 15.316C600.489 14.686 599.705 14.378 598.725 14.378C598.221 14.378 597.773 14.462 597.381 14.658C596.961 14.854 596.611 15.148 596.331 15.568H596.261V15.442C596.261 14.518 596.443 13.748 596.835 13.132C597.227 12.474 597.759 12.152 598.431 12.152C599.383 12.152 599.971 12.614 600.167 13.538H601.763C601.511 11.718 600.405 10.808 598.445 10.808ZM598.375 15.708C598.977 15.708 599.453 15.89 599.817 16.268C600.153 16.632 600.335 17.122 600.335 17.738C600.335 18.354 600.153 18.858 599.789 19.25C599.425 19.642 598.963 19.838 598.375 19.838C597.801 19.838 597.339 19.656 596.975 19.292C596.611 18.928 596.429 18.424 596.429 17.794C596.429 17.15 596.597 16.632 596.947 16.268C597.283 15.89 597.759 15.708 598.375 15.708ZM603.788 11.004L603.242 16.632H604.768C604.964 16.282 605.23 16.03 605.58 15.862C605.888 15.708 606.266 15.638 606.7 15.638C607.344 15.638 607.848 15.82 608.184 16.212C608.52 16.59 608.702 17.122 608.702 17.794C608.702 18.41 608.492 18.9 608.1 19.264C607.694 19.628 607.19 19.81 606.602 19.81C606.056 19.81 605.622 19.684 605.314 19.46C604.95 19.194 604.74 18.788 604.67 18.242H603.06C603.13 19.166 603.522 19.908 604.25 20.454C604.894 20.944 605.678 21.196 606.588 21.196C607.582 21.196 608.436 20.902 609.164 20.314C609.948 19.656 610.34 18.816 610.34 17.78C610.34 16.702 610.032 15.848 609.444 15.232C608.856 14.616 608.086 14.308 607.148 14.308C606.7 14.308 606.294 14.378 605.93 14.518C605.524 14.658 605.174 14.882 604.866 15.19H604.824L605.104 12.446L609.878 12.446V11.004L603.788 11.004Z" fill="#3B3558"/>
<path d="M911.193 10.808C910.185 10.808 909.345 11.13 908.673 11.788C908.001 12.432 907.665 13.258 907.665 14.266C907.665 15.246 907.945 16.044 908.533 16.66C909.121 17.304 909.919 17.626 910.899 17.626C911.403 17.626 911.851 17.528 912.243 17.346C912.649 17.15 912.999 16.842 913.293 16.436H913.363V16.562C913.363 17.486 913.167 18.256 912.789 18.872C912.383 19.516 911.851 19.852 911.193 19.852C910.227 19.852 909.653 19.39 909.457 18.466H907.861C908.099 20.286 909.205 21.196 911.179 21.196C912.327 21.196 913.251 20.692 913.937 19.684C914.609 18.676 914.959 17.346 914.959 15.722C914.959 14.182 914.637 12.992 913.993 12.124C913.349 11.242 912.411 10.808 911.193 10.808ZM911.249 12.166C911.809 12.166 912.285 12.348 912.649 12.712C913.013 13.076 913.195 13.566 913.195 14.21C913.195 14.854 913.013 15.358 912.677 15.736C912.327 16.1 911.851 16.296 911.249 16.296C910.633 16.296 910.157 16.1 909.821 15.736C909.457 15.372 909.289 14.882 909.289 14.266C909.289 13.65 909.457 13.146 909.821 12.754C910.185 12.362 910.661 12.166 911.249 12.166ZM916.788 11.004L916.242 16.632H917.768C917.964 16.282 918.23 16.03 918.58 15.862C918.888 15.708 919.266 15.638 919.7 15.638C920.344 15.638 920.848 15.82 921.184 16.212C921.52 16.59 921.702 17.122 921.702 17.794C921.702 18.41 921.492 18.9 921.1 19.264C920.694 19.628 920.19 19.81 919.602 19.81C919.056 19.81 918.622 19.684 918.314 19.46C917.95 19.194 917.74 18.788 917.67 18.242H916.06C916.13 19.166 916.522 19.908 917.25 20.454C917.894 20.944 918.678 21.196 919.588 21.196C920.582 21.196 921.436 20.902 922.164 20.314C922.948 19.656 923.34 18.816 923.34 17.78C923.34 16.702 923.032 15.848 922.444 15.232C921.856 14.616 921.086 14.308 920.148 14.308C919.7 14.308 919.294 14.378 918.93 14.518C918.524 14.658 918.174 14.882 917.866 15.19H917.824L918.104 12.446L922.878 12.446V11.004L916.788 11.004Z" fill="#3B3558"/>
<defs>
<linearGradient id="paint0_linear_705_14163" x1="-0.0464221" y1="17.5014" x2="935.285" y2="46.4218" gradientUnits="userSpaceOnUse">
<stop offset="0.0169591" stop-color="#FBB1AD"/>
<stop offset="0.306445" stop-color="#F4EBA9"/>
<stop offset="0.354624" stop-color="#C4F2BF"/>
<stop offset="0.645763" stop-color="#C4F2BF"/>
<stop offset="0.969498" stop-color="#B0EEE8"/>
</linearGradient>
</defs>
</svg>
