<svg width="936" height="32" viewBox="0 0 936 32" fill="none" xmlns="http://www.w3.org/2000/svg">
<rect width="936" height="32" rx="8" fill="url(#paint0_linear_705_14243)"/>
<path d="M16.4595 10.808C15.3815 10.808 14.5135 11.172 13.8555 11.9C13.2115 12.586 12.8895 13.482 12.8755 14.602H14.5135C14.5415 13.818 14.7095 13.216 15.0175 12.824C15.3255 12.404 15.7875 12.194 16.4035 12.194C16.9775 12.194 17.4115 12.32 17.7055 12.586C17.9855 12.852 18.1395 13.258 18.1395 13.804C18.1395 14.364 17.9155 14.896 17.4815 15.386C17.2015 15.68 16.7535 16.058 16.1095 16.506C14.9475 17.304 14.1775 17.92 13.8135 18.34C13.1415 19.096 12.8195 19.978 12.8195 21H19.7915L19.7915 19.558H14.8635C15.0875 19.054 15.7035 18.466 16.7255 17.794C17.7055 17.136 18.4055 16.604 18.7975 16.184C19.4415 15.47 19.7775 14.686 19.7775 13.818C19.7775 12.922 19.4695 12.208 18.8535 11.648C18.2235 11.088 17.4255 10.808 16.4595 10.808ZM24.7 10.808C23.524 10.808 22.614 11.284 21.97 12.264C21.354 13.188 21.046 14.434 21.046 16.002C21.046 17.57 21.354 18.816 21.97 19.74C22.614 20.706 23.524 21.196 24.7 21.196C25.862 21.196 26.772 20.706 27.43 19.74C28.046 18.816 28.354 17.57 28.354 16.002C28.354 14.434 28.046 13.188 27.43 12.264C26.772 11.284 25.862 10.808 24.7 10.808ZM24.7 12.194C25.484 12.194 26.044 12.628 26.38 13.524C26.604 14.126 26.716 14.952 26.716 16.002C26.716 17.038 26.604 17.864 26.38 18.48C26.044 19.362 25.484 19.81 24.7 19.81C23.902 19.81 23.342 19.362 23.02 18.48C22.796 17.864 22.684 17.038 22.684 16.002C22.684 14.952 22.796 14.126 23.02 13.524C23.342 12.628 23.902 12.194 24.7 12.194Z" fill="#3B3558"/>
<path d="M190.459 10.808C189.381 10.808 188.513 11.172 187.855 11.9C187.211 12.586 186.889 13.482 186.875 14.602H188.513C188.541 13.818 188.709 13.216 189.017 12.824C189.325 12.404 189.787 12.194 190.403 12.194C190.977 12.194 191.411 12.32 191.705 12.586C191.985 12.852 192.139 13.258 192.139 13.804C192.139 14.364 191.915 14.896 191.481 15.386C191.201 15.68 190.753 16.058 190.109 16.506C188.947 17.304 188.177 17.92 187.813 18.34C187.141 19.096 186.819 19.978 186.819 21H193.791V19.558H188.863C189.087 19.054 189.703 18.466 190.725 17.794C191.705 17.136 192.405 16.604 192.797 16.184C193.441 15.47 193.777 14.686 193.777 13.818C193.777 12.922 193.469 12.208 192.853 11.648C192.223 11.088 191.425 10.808 190.459 10.808ZM198.854 10.808C197.776 10.808 196.908 11.172 196.25 11.9C195.606 12.586 195.284 13.482 195.27 14.602H196.908C196.936 13.818 197.104 13.216 197.412 12.824C197.72 12.404 198.182 12.194 198.798 12.194C199.372 12.194 199.806 12.32 200.1 12.586C200.38 12.852 200.534 13.258 200.534 13.804C200.534 14.364 200.31 14.896 199.876 15.386C199.596 15.68 199.148 16.058 198.504 16.506C197.342 17.304 196.572 17.92 196.208 18.34C195.536 19.096 195.214 19.978 195.214 21H202.186V19.558H197.258C197.482 19.054 198.098 18.466 199.12 17.794C200.1 17.136 200.8 16.604 201.192 16.184C201.836 15.47 202.172 14.686 202.172 13.818C202.172 12.922 201.864 12.208 201.248 11.648C200.618 11.088 199.82 10.808 198.854 10.808Z" fill="#3B3558"/>
<path d="M640.788 10.808C639.71 10.808 638.842 11.172 638.184 11.9C637.54 12.586 637.218 13.482 637.204 14.602H638.842C638.87 13.818 639.038 13.216 639.346 12.824C639.654 12.404 640.116 12.194 640.732 12.194C641.306 12.194 641.74 12.32 642.034 12.586C642.314 12.852 642.468 13.258 642.468 13.804C642.468 14.364 642.244 14.896 641.81 15.386C641.53 15.68 641.082 16.058 640.438 16.506C639.276 17.304 638.506 17.92 638.142 18.34C637.47 19.096 637.148 19.978 637.148 21H644.12V19.558H639.192C639.416 19.054 640.032 18.466 641.054 17.794C642.034 17.136 642.734 16.604 643.126 16.184C643.77 15.47 644.106 14.686 644.106 13.818C644.106 12.922 643.798 12.208 643.182 11.648C642.552 11.088 641.754 10.808 640.788 10.808ZM645.248 11.004V12.488L650.358 12.488L646.774 21H648.51L652.01 12.32V11.004L645.248 11.004Z" fill="#3B3558"/>
<path d="M730.459 10.808C729.381 10.808 728.513 11.172 727.855 11.9C727.211 12.586 726.889 13.482 726.875 14.602H728.513C728.541 13.818 728.709 13.216 729.017 12.824C729.325 12.404 729.787 12.194 730.403 12.194C730.977 12.194 731.411 12.32 731.705 12.586C731.985 12.852 732.139 13.258 732.139 13.804C732.139 14.364 731.915 14.896 731.481 15.386C731.201 15.68 730.753 16.058 730.109 16.506C728.947 17.304 728.177 17.92 727.813 18.34C727.141 19.096 726.819 19.978 726.819 21H733.791V19.558H728.863C729.087 19.054 729.703 18.466 730.725 17.794C731.705 17.136 732.405 16.604 732.797 16.184C733.441 15.47 733.777 14.686 733.777 13.818C733.777 12.922 733.469 12.208 732.853 11.648C732.223 11.088 731.425 10.808 730.459 10.808ZM738.7 10.808C737.622 10.808 736.768 11.088 736.138 11.662C735.564 12.166 735.284 12.796 735.284 13.552C735.284 14.056 735.396 14.49 735.62 14.84C735.858 15.204 736.222 15.498 736.726 15.694V15.722C736.25 15.848 735.858 16.128 735.522 16.562C735.13 17.038 734.948 17.584 734.948 18.2C734.948 19.096 735.27 19.81 735.928 20.37C736.572 20.916 737.496 21.196 738.7 21.196C739.89 21.196 740.814 20.916 741.472 20.37C742.116 19.81 742.452 19.096 742.452 18.2C742.452 17.584 742.256 17.038 741.878 16.562C741.542 16.128 741.136 15.848 740.674 15.722V15.694C741.164 15.498 741.528 15.204 741.78 14.84C742.004 14.49 742.116 14.056 742.116 13.552C742.116 12.796 741.822 12.166 741.262 11.662C740.618 11.088 739.764 10.808 738.7 10.808ZM738.7 12.11C739.288 12.11 739.75 12.264 740.114 12.586C740.422 12.866 740.576 13.202 740.576 13.608C740.576 14.07 740.45 14.434 740.198 14.7C739.89 15.022 739.386 15.19 738.7 15.19C738 15.19 737.51 15.022 737.202 14.7C736.95 14.434 736.824 14.07 736.824 13.608C736.824 13.202 736.978 12.866 737.286 12.586C737.636 12.264 738.112 12.11 738.7 12.11ZM738.7 16.408C739.4 16.408 739.932 16.576 740.31 16.926C740.646 17.234 740.828 17.668 740.828 18.2C740.828 18.704 740.646 19.096 740.296 19.404C739.904 19.712 739.372 19.88 738.7 19.88C738.014 19.88 737.496 19.726 737.132 19.418C736.754 19.11 736.572 18.704 736.572 18.2C736.572 17.668 736.74 17.234 737.104 16.912C737.468 16.576 738 16.408 738.7 16.408Z" fill="#3B3558"/>
<path d="M911.403 10.808C910.423 10.808 909.611 11.074 908.981 11.634C908.309 12.194 907.945 12.978 907.861 13.986H909.471C909.527 13.384 909.723 12.936 910.059 12.642C910.381 12.348 910.829 12.208 911.417 12.208C911.991 12.208 912.425 12.334 912.719 12.586C912.985 12.838 913.125 13.202 913.125 13.692C913.125 14.182 912.971 14.56 912.677 14.812C912.369 15.064 911.921 15.19 911.333 15.19H910.633V16.422H911.333C911.977 16.422 912.467 16.548 912.803 16.828C913.139 17.094 913.321 17.514 913.321 18.088C913.321 18.564 913.153 18.956 912.831 19.278C912.467 19.628 911.963 19.81 911.333 19.81C910.759 19.81 910.297 19.642 909.947 19.32C909.555 18.97 909.359 18.466 909.331 17.822H907.665C907.749 18.942 908.141 19.81 908.841 20.398C909.471 20.93 910.311 21.196 911.347 21.196C912.439 21.196 913.321 20.888 913.993 20.286C914.637 19.698 914.959 18.942 914.959 18.018C914.959 17.43 914.791 16.94 914.455 16.562C914.147 16.198 913.685 15.932 913.097 15.75C914.203 15.386 914.763 14.658 914.763 13.566C914.763 12.698 914.455 12.026 913.853 11.536C913.237 11.046 912.411 10.808 911.403 10.808ZM919.7 10.808C918.524 10.808 917.614 11.284 916.97 12.264C916.354 13.188 916.046 14.434 916.046 16.002C916.046 17.57 916.354 18.816 916.97 19.74C917.614 20.706 918.524 21.196 919.7 21.196C920.862 21.196 921.772 20.706 922.43 19.74C923.046 18.816 923.354 17.57 923.354 16.002C923.354 14.434 923.046 13.188 922.43 12.264C921.772 11.284 920.862 10.808 919.7 10.808ZM919.7 12.194C920.484 12.194 921.044 12.628 921.38 13.524C921.604 14.126 921.716 14.952 921.716 16.002C921.716 17.038 921.604 17.864 921.38 18.48C921.044 19.362 920.484 19.81 919.7 19.81C918.902 19.81 918.342 19.362 918.02 18.48C917.796 17.864 917.684 17.038 917.684 16.002C917.684 14.952 917.796 14.126 918.02 13.524C918.342 12.628 918.902 12.194 919.7 12.194Z" fill="#3B3558"/>
<defs>
<linearGradient id="paint0_linear_705_14243" x1="936" y1="16.0061" x2="0.766511" y2="-13.0339" gradientUnits="userSpaceOnUse">
<stop offset="0.0227554" stop-color="#FBB1AD"/>
<stop offset="0.213132" stop-color="#F4EBA9"/>
<stop offset="0.312173" stop-color="#C4F2BF"/>
<stop offset="0.792913" stop-color="#C4F2BF"/>
<stop offset="0.979875" stop-color="#B0EEE8"/>
</linearGradient>
</defs>
</svg>
